<?xml version="1.0" standalone="no"?>
<!DOCTYPE svg PUBLIC "-//W3C//DTD SVG 20010904//EN"
 "http://www.w3.org/TR/2001/REC-SVG-20010904/DTD/svg10.dtd">
<svg version="1.0" xmlns="http://www.w3.org/2000/svg"
 width="768.000000pt" height="1024.000000pt" viewBox="0 0 768.000000 1024.000000"
 preserveAspectRatio="xMidYMid meet">

<g transform="translate(0.000000,1024.000000) scale(0.100000,-0.100000)"
fill="#000000" stroke="none">
<path d="M5 10229 c-8 -11 22 -38 43 -39 6 0 12 11 12 25 0 20 -5 25 -24 25
-14 0 -28 -5 -31 -11z"/>
<path d="M110 10236 c0 -3 4 -17 10 -31 12 -31 30 -24 30 11 0 17 -5 24 -20
24 -11 0 -20 -2 -20 -4z"/>
<path d="M176 10218 c-10 -38 -7 -65 9 -78 9 -7 14 -24 13 -39 -3 -24 0 -26
40 -28 46 -2 48 0 30 40 -13 28 -35 38 -24 12 3 -8 1 -15 -4 -15 -13 0 -13 27
0 35 14 9 13 45 -2 45 -6 0 -3 6 8 14 10 8 21 10 22 5 2 -5 20 -18 40 -29 64
-34 63 -33 51 -71 -7 -19 -19 -42 -27 -51 -13 -15 -13 -21 2 -53 9 -19 23 -35
31 -35 8 0 23 -10 35 -22 19 -20 23 -21 63 -9 23 7 53 15 67 18 14 3 42 21 63
39 37 34 80 44 93 22 4 -6 2 -14 -4 -16 -12 -4 42 -62 57 -62 4 0 14 -12 22
-27 26 -53 99 -105 99 -72 0 15 -33 69 -42 69 -4 0 -13 10 -19 23 -9 17 -9 20
1 10 13 -12 40 -7 53 11 5 7 12 5 20 -8 7 -10 29 -42 50 -70 36 -49 48 -86 27
-86 -5 0 -10 7 -10 15 0 14 -48 65 -62 65 -5 0 -5 -26 -2 -57 l7 -58 -66 67
c-78 79 -102 95 -123 77 -8 -6 -12 -20 -9 -30 3 -9 1 -20 -5 -24 -5 -3 -10
-13 -10 -21 0 -21 -52 -77 -60 -64 -4 7 -19 2 -41 -13 -32 -22 -34 -27 -31
-71 2 -32 0 -46 -7 -41 -6 3 -11 17 -11 30 0 13 -9 30 -20 38 -11 8 -23 29
-27 48 -9 49 -40 119 -53 119 -14 0 -13 -11 5 -30 11 -12 13 -31 8 -83 -3 -37
-10 -67 -14 -67 -12 0 -11 -27 1 -35 5 -3 16 7 25 22 12 22 14 23 10 6 -5 -16
1 -29 18 -45 13 -13 26 -31 30 -40 3 -10 22 -20 44 -24 40 -7 63 -20 63 -35 0
-5 -12 -7 -27 -4 l-28 6 34 -30 c18 -16 41 -30 50 -31 45 -5 115 0 123 8 13
13 48 3 48 -14 0 -10 13 -14 41 -14 24 0 38 4 34 10 -3 6 -17 10 -31 10 -13 0
-24 4 -24 9 0 13 37 24 50 16 6 -3 17 1 25 9 14 13 13 16 -4 26 -29 15 -59 12
-70 -7 -8 -15 -13 -16 -28 -5 -10 7 -26 15 -35 18 -10 4 -18 12 -18 19 0 7
-23 22 -51 34 -41 18 -50 26 -46 42 3 12 0 19 -9 19 -17 0 -18 23 -4 51 12 21
28 17 68 -21 15 -14 29 -19 42 -15 15 5 18 3 14 -8 -7 -20 81 -81 103 -73 19
8 7 22 -21 28 -25 4 -29 18 -12 41 15 20 51 11 51 -12 0 -8 15 -19 34 -24 33
-8 36 -6 96 57 34 36 64 66 68 66 11 0 8 -48 -2 -55 -5 -3 -12 -1 -16 4 -12
21 -35 -2 -35 -34 0 -18 -6 -36 -12 -38 -7 -3 2 -6 20 -6 17 -1 32 2 32 7 0 4
4 14 10 22 7 12 13 9 30 -13 12 -15 27 -27 35 -27 13 0 26 35 29 80 1 14 5 35
10 48 6 19 4 24 -12 29 -12 3 -18 11 -16 18 8 19 -18 64 -70 120 -25 27 -43
51 -41 53 2 3 22 -5 45 -17 50 -26 53 -26 45 -1 -4 11 -2 20 4 20 6 0 11 -7
11 -15 0 -8 5 -15 10 -15 6 0 10 9 10 19 0 20 -37 35 -62 26 -7 -3 -18 6 -24
19 -10 22 -9 25 15 31 23 6 24 8 8 16 -9 6 -17 17 -17 24 0 21 13 18 28 -5 18
-29 38 -25 51 10 6 18 17 30 28 30 32 0 -68 59 -120 70 -84 18 -139 13 -165
-15 -16 -17 -21 -31 -17 -45 3 -11 2 -20 -2 -20 -15 0 -61 53 -72 83 -17 45
-14 50 27 45 20 -3 69 0 107 7 62 11 20 13 -351 14 l-422 1 -6 -22z m790 -90
c-10 -6 -20 -7 -24 -3 -9 8 20 25 31 18 5 -3 2 -10 -7 -15z m46 -88 c33 0 38
-6 24 -36 -14 -32 -35 -27 -63 15 -28 41 -30 60 -5 38 10 -10 30 -17 44 -17z
m-612 10 c0 -5 -5 -10 -11 -10 -5 0 -7 5 -4 10 3 6 8 10 11 10 2 0 4 -4 4 -10z
m194 4 c18 -7 12 -24 -10 -24 -8 0 -14 7 -14 15 0 17 2 18 24 9z m176 -59 c10
-12 10 -15 -3 -15 -8 0 -17 7 -21 15 -3 8 -2 15 3 15 5 0 14 -7 21 -15z m155
5 c3 -5 1 -10 -4 -10 -6 0 -11 5 -11 10 0 6 2 10 4 10 3 0 8 -4 11 -10z m155
-136 l0 -25 -30 21 c-16 12 -30 23 -30 26 0 2 14 4 30 4 26 0 30 -4 30 -26z
m-200 -153 c0 -6 -4 -13 -10 -16 -5 -3 -10 1 -10 9 0 9 5 16 10 16 6 0 10 -4
10 -9z"/>
<path d="M1133 10229 c60 -14 108 -43 195 -118 82 -71 121 -89 199 -94 33 -2
38 1 41 21 3 20 -1 22 -40 22 -46 0 -95 31 -82 51 4 6 15 2 28 -10 26 -24 45
-28 26 -6 -20 25 -3 30 34 10 18 -10 41 -15 50 -12 17 7 23 47 6 47 -5 0 -9
10 -7 22 2 20 -4 23 -53 30 -73 11 -122 27 -115 39 4 5 -60 9 -157 8 -118 -1
-153 -3 -125 -10z"/>
<path d="M1621 10216 c7 -14 17 -23 23 -20 6 2 19 -9 28 -26 17 -30 38 -40 38
-19 0 15 -74 89 -89 89 -8 0 -8 -7 0 -24z"/>
<path d="M1712 10213 c21 -24 94 -143 157 -258 9 -16 24 -36 34 -43 49 -37 77
-79 88 -132 6 -30 16 -61 21 -67 14 -18 53 -16 68 2 17 21 43 19 92 -6 49 -25
111 -20 101 9 -3 9 -12 22 -21 29 -9 7 -12 21 -9 34 10 36 -10 57 -86 92 -68
32 -127 83 -127 111 0 33 54 77 120 97 16 5 19 8 8 8 -24 1 -23 33 0 54 22 21
40 21 61 3 19 -16 105 -38 109 -28 5 14 18 28 51 55 31 26 38 27 92 21 46 -5
64 -3 84 10 14 9 25 21 25 26 0 6 -163 10 -447 10 l-447 0 26 -27z"/>
<path d="M2800 10199 c-30 -58 -18 -92 35 -96 21 -1 52 -12 68 -24 37 -27 68
-15 93 33 9 18 23 41 32 51 19 21 65 22 82 2 7 -8 18 -15 26 -15 13 0 84 69
84 83 0 4 -90 7 -200 7 l-200 0 -20 -41z"/>
<path d="M3338 10228 c17 -8 26 -8 34 0 9 9 4 12 -22 11 -33 0 -34 -1 -12 -11z"/>
<path d="M3522 10224 c11 -11 25 -14 42 -10 40 10 31 26 -16 26 -39 0 -41 -1
-26 -16z"/>
<path d="M4415 10230 c3 -5 15 -10 25 -10 10 0 22 5 25 10 4 6 -7 10 -25 10
-18 0 -29 -4 -25 -10z"/>
<path d="M4900 10223 c0 -9 -5 -45 -11 -79 -15 -86 -35 -105 -134 -128 -44
-10 -93 -28 -110 -40 -40 -28 -167 -30 -208 -3 -14 9 -35 17 -45 17 -11 0 -31
9 -45 20 -15 12 -29 20 -32 19 -3 0 -19 5 -36 11 -51 22 -71 -16 -59 -110 2
-14 0 -35 -4 -47 -6 -19 -4 -23 13 -23 11 0 23 5 27 11 4 7 27 10 60 7 60 -5
86 -23 115 -80 19 -38 19 -38 -1 -79 -15 -29 -42 -54 -97 -90 -68 -44 -81 -49
-132 -49 -46 0 -61 4 -84 25 -38 36 -70 102 -63 131 8 30 -21 46 -36 21 -10
-19 -38 -21 -88 -7 -61 18 -71 31 -82 115 -3 17 3 20 42 20 69 0 96 26 43 41
-40 11 -55 6 -81 -23 -18 -19 -35 -26 -73 -29 -45 -4 -54 -1 -79 24 -40 40
-55 102 -35 141 18 36 20 71 3 72 -7 1 -38 0 -68 -1 -30 -1 -75 5 -99 13 -38
14 -50 14 -100 1 -68 -18 -94 -45 -111 -121 -6 -30 -10 -56 -8 -59 3 -2 30 -5
62 -7 74 -5 83 -14 62 -67 -23 -57 -20 -104 9 -156 13 -24 23 -44 20 -44 -8 0
26 -84 41 -101 13 -15 15 -33 9 -104 l-7 -87 48 9 c27 4 99 7 160 7 222 -3
370 -76 613 -301 31 -29 65 -53 77 -53 28 0 84 -20 84 -30 0 -5 -11 -12 -25
-17 l-26 -8 41 -55 c23 -30 62 -99 88 -152 25 -54 50 -98 55 -98 5 0 7 8 4 19
-3 12 4 23 24 35 16 9 35 24 44 32 20 21 158 24 202 5 29 -12 37 -11 67 3 40
19 77 20 162 4 56 -10 66 -9 91 7 21 14 51 19 128 21 94 3 102 2 140 -24 74
-50 91 -81 65 -115 -21 -27 -27 -82 -9 -92 29 -18 27 -69 -4 -133 -15 -32 -75
-59 -118 -54 -26 3 -41 12 -58 37 -13 20 -35 36 -52 40 -16 4 -41 20 -56 36
-33 34 -39 35 -45 11 -8 -28 -83 -45 -131 -30 -34 10 -39 9 -80 -24 -40 -33
-62 -42 -94 -39 -8 1 -13 15 -13 36 0 27 6 38 28 52 28 17 72 58 72 68 0 3 -5
5 -11 5 -6 0 -37 22 -69 50 -86 75 -170 81 -170 11 0 -34 10 -47 41 -54 15 -4
29 -16 32 -28 6 -24 -6 -63 -23 -74 -5 -3 -19 -23 -29 -43 -11 -20 -29 -47
-40 -59 -12 -12 -21 -34 -21 -48 0 -14 -4 -25 -8 -25 -25 0 -137 53 -170 81
-27 23 -49 32 -76 33 -30 1 -36 -2 -33 -15 4 -14 -1 -14 -32 4 -32 19 -34 19
-21 3 8 -11 14 -21 12 -23 -2 -3 0 -8 4 -11 4 -4 4 -1 -1 7 -5 9 -3 12 5 9 7
-2 17 -14 21 -26 8 -20 5 -22 -31 -22 -28 0 -40 4 -40 15 0 17 -85 56 -105 49
-8 -4 -15 -1 -15 5 0 6 -7 11 -15 11 -8 0 -15 5 -15 11 0 16 -49 5 -93 -21
-21 -12 -37 -28 -37 -36 0 -8 -5 -14 -11 -14 -7 0 -9 -9 -5 -23 4 -17 -1 -30
-19 -47 -27 -25 -27 -39 -2 -86 l16 -32 -38 2 c-22 0 -37 4 -34 9 2 4 10 7 18
7 20 0 26 28 7 34 -12 4 -18 16 -17 34 0 17 -5 26 -13 24 -16 -3 -8 46 14 91
16 31 13 34 -11 11 -13 -13 -21 -14 -38 -6 -48 22 -57 22 -57 -1 -1 -21 -1
-22 -15 -3 -9 12 -15 15 -15 7 0 -9 -9 -12 -27 -8 -31 6 -55 -1 -47 -14 3 -5
0 -9 -5 -9 -6 0 -11 -9 -11 -19 0 -16 -84 -101 -100 -101 -11 0 -60 48 -60 59
0 6 11 11 25 11 17 0 25 6 25 17 0 9 -3 13 -7 10 -3 -4 -11 -3 -17 2 -16 13
-63 15 -119 6 -32 -5 -57 -3 -78 5 -45 19 -89 21 -89 4 0 -17 -17 -18 -23 -1
-2 6 -11 -2 -20 -20 -17 -31 -9 -52 13 -38 6 4 10 -6 10 -21 0 -22 3 -25 12
-16 14 14 42 16 34 3 -3 -5 28 -8 69 -6 41 1 75 -1 75 -5 0 -12 -39 -19 -46
-8 -4 6 -10 5 -15 -3 -10 -17 -29 -19 -46 -6 -9 6 -13 6 -13 -2 0 -6 -9 -11
-20 -11 -11 0 -20 -4 -20 -10 0 -5 18 -10 39 -10 22 0 47 -3 55 -6 15 -6 15
-7 0 -19 -9 -6 -18 -24 -20 -38 -1 -15 -6 -37 -10 -49 -5 -18 0 -16 37 15 23
20 50 37 58 37 18 -1 21 2 -57 -52 -22 -15 -47 -43 -56 -63 -19 -39 -13 -63
10 -44 12 10 20 7 42 -16 15 -15 20 -24 12 -20 -8 4 -4 -2 9 -15 19 -19 22
-30 18 -61 -4 -29 -2 -39 9 -39 8 0 14 -4 14 -10 0 -21 30 -9 47 20 16 29 28
35 64 32 10 -1 15 7 15 20 -1 18 5 21 42 21 24 0 48 -5 54 -11 16 -16 25 -15
32 4 5 13 4 14 -7 6 -20 -17 -38 5 -27 33 11 29 3 37 -21 24 -17 -8 -19 -6
-19 21 0 21 4 30 13 27 6 -2 11 -9 10 -15 -1 -5 15 -14 36 -19 36 -10 39 -9
39 13 0 24 -23 40 -33 24 -4 -6 -12 -10 -18 -10 -7 0 -4 7 6 14 9 7 17 18 17
24 0 6 5 14 12 18 8 5 9 2 5 -9 -3 -9 -1 -19 5 -23 6 -4 8 -3 5 2 -3 6 -1 16
4 24 16 26 27 -7 18 -54 -8 -46 -48 -136 -75 -173 -13 -18 -13 -23 -3 -23 20
0 90 157 101 224 4 25 84 99 109 101 26 2 32 -10 19 -36 -10 -18 -9 -20 11
-17 15 2 32 18 47 43 20 36 22 37 16 10 -4 -16 -15 -36 -25 -45 -27 -23 -30
-84 -4 -74 17 7 21 -11 5 -21 -5 -3 -10 -21 -10 -40 0 -19 5 -37 10 -40 20
-12 10 -35 -15 -35 -14 0 -25 -4 -25 -10 0 -5 5 -10 11 -10 6 0 8 -9 4 -21 -5
-15 0 -29 18 -47 14 -15 27 -36 30 -47 8 -27 -17 -58 -40 -51 -12 4 -30 -4
-51 -23 -18 -17 -32 -33 -32 -36 0 -3 -8 -15 -19 -26 -17 -18 -20 -19 -34 -5
-20 20 -47 21 -47 1 0 -11 -7 -14 -24 -9 -27 6 -99 -23 -90 -37 3 -5 -4 -9
-15 -9 -30 0 -26 -20 12 -55 41 -37 53 -71 26 -78 -10 -3 -28 4 -41 15 -15 13
-24 15 -27 7 -2 -6 3 -15 10 -20 10 -6 11 -9 2 -9 -7 0 -13 -7 -13 -15 0 -8 6
-14 13 -13 14 3 13 -55 -2 -60 -5 -2 -27 -17 -48 -33 -25 -20 -44 -28 -58 -24
-11 3 -41 8 -66 11 -34 5 -46 11 -45 22 1 10 -11 18 -33 23 -38 8 -78 26 -103
47 -9 8 -21 11 -27 8 -5 -3 -16 1 -24 9 -9 8 -27 15 -41 15 -14 0 -28 4 -31
10 -3 5 -16 15 -28 20 -22 11 -22 11 -2 -5 11 -9 27 -22 35 -28 20 -16 50 -71
50 -92 0 -9 -25 -58 -56 -107 -33 -54 -66 -124 -81 -172 -29 -92 -58 -138
-101 -155 -28 -12 -30 -16 -26 -54 3 -23 9 -51 13 -62 5 -11 17 -41 28 -67 10
-27 21 -48 26 -48 4 0 7 -8 7 -17 0 -10 17 14 38 52 20 39 58 99 82 135 25 36
45 72 45 80 0 8 6 15 13 15 26 0 61 47 117 162 32 65 59 119 60 120 0 1 21 -4
45 -11 42 -13 54 -31 29 -47 -5 -3 -1 -13 9 -22 13 -12 17 -27 14 -52 -2 -19
-9 -32 -14 -29 -5 3 -9 -2 -7 -12 3 -28 -18 -74 -34 -74 -8 0 -26 -22 -40 -49
l-25 -49 34 20 c27 16 37 18 49 8 25 -21 49 5 84 92 19 45 49 110 67 144 34
61 43 91 24 79 -5 -3 -9 9 -8 30 1 27 5 35 17 33 22 -3 41 10 41 28 0 9 15 36
32 62 42 60 68 108 68 125 0 8 -18 22 -40 32 -48 22 -53 39 -7 29 17 -4 52 -8
77 -9 25 -1 65 -9 89 -18 26 -9 51 -13 59 -8 18 10 52 3 52 -11 0 -6 6 -6 14
1 11 9 18 8 30 -4 9 -9 16 -20 16 -25 0 -5 3 -15 6 -23 3 -9 -3 -16 -15 -20
-12 -3 -21 -1 -21 4 0 11 -81 71 -87 65 -3 -2 1 -14 7 -26 8 -15 9 -25 2 -29
-5 -3 -16 -24 -24 -46 -18 -52 -40 -85 -55 -85 -7 0 -13 -7 -13 -15 0 -27 -42
-95 -73 -119 l-31 -25 25 -6 c19 -5 24 -13 25 -40 0 -19 -3 -35 -8 -35 -5 0
-7 -4 -4 -9 5 -8 -6 -42 -36 -111 -17 -40 -25 -62 -38 -110 -27 -97 -32 -111
-43 -107 -12 4 -87 -90 -87 -108 0 -6 -15 -27 -33 -48 -18 -22 -39 -60 -46
-85 -7 -26 -16 -57 -21 -69 -5 -11 -6 -24 -2 -28 20 -20 82 -35 141 -35 40 0
72 -5 80 -12 11 -11 12 -10 6 0 -6 11 -3 11 14 1 14 -9 16 -16 9 -20 -8 -5 -2
-12 15 -20 19 -9 27 -20 27 -38 0 -14 13 -42 30 -61 39 -46 55 -89 35 -95 -8
-3 -23 -8 -32 -11 -10 -3 -35 -8 -57 -10 -21 -2 -45 -9 -53 -15 -17 -14 -13
-55 5 -52 6 2 12 -2 12 -7 0 -6 8 -10 19 -10 10 0 31 -5 47 -10 24 -8 30 -17
32 -43 1 -17 -1 -27 -5 -22 -5 6 -19 10 -33 9 -14 -1 -28 2 -31 7 -3 6 -15 6
-29 1 -16 -6 -24 -18 -26 -41 -4 -34 -39 -81 -61 -81 -7 0 -17 -19 -24 -42 -6
-23 -17 -51 -25 -62 -8 -13 -10 -24 -4 -31 5 -6 7 -28 3 -49 -4 -27 -10 -36
-21 -31 -10 3 -12 0 -8 -10 3 -8 1 -15 -5 -15 -6 0 -8 -3 -6 -7 8 -14 -12 -53
-28 -53 -8 0 -15 -7 -15 -16 0 -12 -6 -15 -20 -11 -17 4 -20 2 -15 -15 5 -14
1 -21 -13 -25 -14 -3 -19 -10 -15 -21 4 -10 2 -13 -5 -8 -13 8 -36 -30 -27
-45 4 -5 15 -7 26 -4 10 4 19 2 19 -2 0 -12 -97 -64 -112 -61 -7 2 -13 -6 -13
-17 0 -25 -31 -55 -57 -55 -10 0 -21 -7 -24 -15 -4 -8 -12 -15 -18 -15 -7 0
-19 -11 -26 -25 -7 -14 -19 -25 -27 -25 -7 0 -13 -7 -13 -15 0 -8 -4 -15 -10
-15 -5 0 -9 -3 -8 -8 3 -15 -15 -42 -28 -42 -7 0 -19 -9 -27 -20 -8 -11 -17
-17 -20 -14 -13 13 -64 -59 -59 -84 2 -6 -1 -12 -5 -12 -5 0 -14 -14 -22 -32
-8 -17 -22 -39 -33 -50 -10 -10 -18 -25 -18 -33 0 -8 -4 -15 -10 -15 -5 0 -13
-12 -16 -26 -4 -15 -12 -23 -20 -20 -7 3 -14 0 -16 -6 -2 -6 -14 -12 -26 -13
-11 -1 -19 2 -17 6 3 4 -5 10 -18 13 -23 7 -145 146 -128 146 5 0 33 14 63 31
70 40 97 87 103 177 5 69 -14 130 -42 140 -9 2 -9 -4 2 -24 9 -19 11 -33 5
-45 -7 -12 -6 -19 3 -22 8 -4 8 -6 -2 -6 -11 -1 -11 -4 2 -19 26 -29 6 -85
-38 -106 -19 -10 -35 -21 -35 -25 0 -15 -76 -61 -101 -61 -17 0 -20 3 -10 9 7
5 10 14 6 21 -4 6 0 19 9 29 19 21 35 118 18 107 -7 -4 -12 -15 -12 -26 0 -14
-5 -17 -22 -13 -23 5 -23 5 -3 -11 17 -13 18 -17 5 -25 -9 -7 -18 -7 -24 -1
-6 6 -18 10 -28 10 -14 0 -17 7 -15 34 1 19 5 32 9 30 4 -3 10 6 14 20 7 29
-13 99 -27 90 -5 -3 -5 -13 1 -24 13 -25 13 -33 -2 -24 -10 6 -10 4 0 -7 14
-15 16 -33 3 -25 -5 3 -11 -1 -15 -9 -7 -19 -32 -20 -39 -1 -5 14 5 39 35 86
15 23 15 26 1 39 -14 12 -15 12 -11 0 5 -14 -18 -69 -29 -69 -3 0 -3 3 0 7 4
3 -3 11 -16 17 -15 8 -22 21 -22 39 -1 16 -7 32 -15 37 -8 5 -11 12 -8 16 4 3
0 20 -8 36 -19 36 -12 59 36 123 74 97 143 269 170 420 23 125 25 133 61 210
40 87 90 167 166 265 l73 95 -16 50 c-9 30 -18 113 -22 207 -5 92 -12 162 -18
168 -8 8 -23 8 -53 0 -49 -13 -158 -109 -178 -157 -7 -18 -17 -33 -22 -33 -18
0 -20 -32 -5 -56 15 -23 15 -28 0 -69 -22 -57 -18 -94 6 -50 l17 30 -6 -44
c-6 -41 -4 -46 36 -82 46 -43 65 -47 93 -22 21 19 24 6 3 -21 -9 -11 -31 -20
-59 -23 -56 -7 -60 -20 -8 -26 26 -2 19 -4 -23 -5 -33 -1 -80 5 -104 14 -50
17 -80 12 -62 -10 8 -10 9 -16 1 -21 -5 -3 -10 -15 -10 -26 0 -25 -12 -24 -30
4 -19 30 -29 125 -21 197 5 43 4 61 -5 64 -16 6 -6 46 11 46 7 0 15 7 19 15 3
8 1 15 -4 15 -6 0 -10 -5 -10 -11 0 -5 -5 -7 -10 -4 -6 4 -18 1 -26 -6 -8 -7
-29 -14 -45 -16 -16 -1 -48 -12 -71 -24 -23 -12 -76 -28 -117 -35 -42 -8 -104
-20 -137 -26 -87 -16 -128 -4 -132 41 -2 18 2 39 9 45 9 8 10 5 5 -16 -3 -16
-3 -28 2 -28 16 0 47 45 49 70 2 17 0 21 -6 11 -14 -23 -33 -2 -26 29 5 23 1
32 -24 51 -33 27 -87 136 -94 190 -2 20 -8 42 -11 48 -4 6 14 55 41 109 26 53
49 100 51 105 2 4 -4 7 -12 7 -28 0 -36 41 -16 78 19 36 16 60 -14 117 -9 17
-16 38 -16 47 0 9 -5 20 -10 23 -6 4 -8 10 -5 14 7 12 -24 71 -37 71 -6 0 -9
3 -5 6 3 4 -2 23 -12 43 -24 49 -14 99 27 139 17 17 34 43 38 58 6 23 2 32
-22 51 -16 12 -33 23 -39 23 -10 0 -85 146 -85 166 0 28 -28 36 -81 23 -45
-12 -56 -11 -97 5 -71 27 -96 29 -130 12 -42 -22 -47 -21 -80 15 -34 37 -32
69 6 99 20 17 34 19 74 14 l48 -7 0 30 c0 33 -35 73 -66 73 -45 1 -117 28
-134 49 -9 13 -42 37 -73 55 -115 64 -166 106 -213 177 -25 38 -55 74 -66 80
-12 6 -45 8 -81 5 -34 -3 -97 -9 -140 -12 -69 -5 -80 -9 -89 -29 -6 -13 -25
-31 -44 -41 -32 -17 -34 -17 -54 1 -16 14 -19 26 -14 51 4 25 1 37 -15 53 -12
12 -28 21 -36 21 -8 0 -15 5 -15 10 0 19 -61 10 -100 -16 -36 -24 -39 -29 -34
-63 7 -50 24 -81 46 -81 10 0 18 -6 19 -12 0 -7 2 -21 4 -31 2 -9 -1 -15 -6
-11 -5 3 -9 1 -9 -5 0 -6 -6 -8 -13 -5 -7 2 -24 -4 -37 -16 -25 -22 -35 -24
-93 -21 -34 3 -38 0 -53 -34 -8 -21 -13 -43 -11 -49 3 -7 -1 -23 -9 -37 -7
-13 -13 -27 -14 -30 0 -15 29 -17 54 -4 14 8 26 12 26 10 0 -3 16 7 36 20 52
36 101 43 125 18 16 -16 18 -25 10 -45 -11 -28 -56 -68 -77 -68 -9 0 -14 -12
-14 -35 0 -47 -39 -68 -113 -61 -70 6 -86 14 -93 45 -9 44 -13 51 -24 51 -6 0
-10 -44 -10 -120 0 -102 2 -119 15 -114 19 8 65 -3 65 -15 0 -5 -18 -31 -40
-57 -32 -39 -40 -57 -40 -88 0 -37 1 -38 18 -23 24 21 85 31 111 18 25 -14 28
-58 6 -87 -8 -10 -15 -27 -15 -38 0 -17 5 -18 46 -12 42 5 48 3 74 -24 15 -17
33 -30 39 -30 16 0 13 -28 -6 -60 -15 -26 -15 -32 0 -87 9 -32 16 -78 15 -103
-1 -49 18 -130 30 -129 4 1 20 1 35 0 25 -1 28 -4 25 -28 -2 -23 -9 -29 -32
-31 -26 -3 -28 -2 -17 12 14 17 2 22 -14 7 -18 -17 -72 0 -84 25 -10 24 -15
25 -89 23 -42 -1 -92 1 -109 5 l-33 8 0 -76 0 -76 34 0 c18 0 50 7 71 15 43
19 68 13 82 -18 25 -52 24 -54 -38 -77 -33 -13 -70 -31 -82 -40 -12 -10 -31
-19 -42 -21 -17 -4 -20 -13 -22 -69 -2 -49 0 -59 7 -42 l10 22 21 -21 c24 -24
21 -30 -15 -33 l-26 -1 2 -1055 c3 -902 5 -1055 17 -1055 8 0 20 18 28 41 15
44 162 207 170 188 2 -7 -10 -35 -27 -64 -17 -29 -28 -55 -25 -58 3 -3 20 0
38 7 18 7 64 18 102 23 39 5 92 13 118 17 48 8 49 8 30 -10 -10 -11 -49 -28
-87 -39 -70 -20 -116 -43 -116 -60 0 -9 77 -33 142 -44 21 -4 37 -12 35 -18
-3 -14 36 -26 90 -27 23 -1 45 -6 48 -12 5 -7 -12 -9 -52 -5 -149 13 -271 16
-299 7 -30 -8 -173 -117 -201 -151 -10 -12 -12 -449 -13 -1977 l0 -1963 49 0
c28 0 53 -5 56 -10 10 -16 20 -12 59 25 43 40 46 41 86 20 42 -22 42 -72 0
-112 -16 -15 -30 -31 -30 -35 0 -3 16 -16 35 -28 29 -18 43 -20 90 -15 35 5
55 12 55 20 0 7 -5 15 -11 17 -7 2 -5 9 5 17 14 11 15 4 15 -71 -1 -62 4 -94
16 -118 23 -45 15 -103 -20 -138 -58 -58 -53 -76 24 -77 40 0 46 -3 51 -25 l6
-25 3097 -3 3097 -2 30 32 29 33 1 -32 0 -33 163 0 162 0 17 28 17 27 1 -27 0
-28 109 0 c101 0 110 2 116 20 8 26 29 26 22 0 -5 -19 0 -20 164 -20 l169 0 0
224 0 224 -37 6 c-21 3 -76 11 -122 17 -116 14 -301 57 -328 75 -26 16 -30 55
-9 73 10 8 33 9 86 1 40 -6 76 -12 80 -15 4 -2 52 -9 106 -14 65 -6 113 -17
139 -30 21 -12 50 -21 62 -21 l23 0 0 2709 0 2710 -22 3 c-21 3 -32 26 -18 38
21 19 40 66 40 100 0 34 -7 47 -41 81 -38 38 -42 40 -58 25 -9 -9 -16 -29 -16
-44 0 -21 -5 -27 -22 -26 -21 0 -22 0 -6 -27 15 -25 15 -29 0 -52 -12 -18 -15
-38 -11 -71 4 -31 1 -55 -10 -77 -9 -18 -16 -51 -16 -74 0 -48 -2 -50 -83 -60
-42 -5 -57 -4 -57 5 0 7 -7 10 -16 6 -11 -4 -14 -1 -9 13 8 26 -30 34 -94 20
-69 -15 -89 -43 -86 -125 2 -67 8 -84 33 -84 14 0 14 -1 0 -12 -17 -14 -30
-76 -17 -84 10 -6 -1 -75 -14 -91 -6 -9 -6 -17 1 -25 5 -7 13 -27 16 -43 5
-23 13 -31 31 -33 13 -1 27 3 30 8 11 18 73 11 85 -9 7 -14 7 -22 -1 -26 -18
-12 -144 -13 -151 -1 -4 7 -20 3 -45 -10 -35 -18 -38 -23 -35 -56 4 -39 -15
-58 -57 -58 -12 0 -21 -4 -21 -10 0 -13 -37 -13 -45 0 -8 13 13 43 56 77 37
30 49 75 29 112 -11 22 -40 29 -40 10 0 -12 -59 -3 -74 12 -17 16 -43 10 -67
-16 -39 -42 -55 -47 -94 -31 -31 13 -34 18 -29 45 7 32 -4 48 -44 70 -15 8
-28 9 -35 3 -11 -8 -45 -9 -51 0 -1 2 -12 16 -24 32 -12 16 -22 43 -22 61 0
21 -8 39 -25 55 -28 26 -35 50 -8 29 15 -12 16 -12 10 4 -3 9 -2 17 3 17 6 0
10 6 10 14 0 15 21 26 50 26 10 0 30 -15 44 -32 50 -63 57 -68 78 -57 26 14
78 69 78 84 0 6 -11 22 -25 35 -27 26 -33 66 -12 92 8 11 35 17 84 21 71 4 73
5 117 51 29 31 61 53 94 64 65 23 79 36 93 83 l12 38 57 -3 c42 -2 65 -9 91
-28 54 -40 83 -43 114 -11 39 43 33 55 -21 47 -37 -5 -47 -3 -59 12 -18 24
-19 78 -2 96 31 32 77 97 93 131 16 34 16 38 1 55 -37 41 -11 82 50 82 34 0
66 31 106 101 14 25 38 54 52 63 21 14 25 24 25 66 0 33 -4 50 -12 51 -7 0
-54 0 -104 0 -102 -2 -120 8 -131 72 -4 29 -2 37 15 46 18 10 20 18 16 59 -5
41 -1 54 25 95 17 26 45 56 62 65 17 9 47 29 66 45 20 15 42 27 49 27 21 0 20
356 0 396 -16 29 -12 78 8 103 8 10 5 18 -12 31 -27 22 -27 26 -2 33 18 5 20
14 20 83 0 61 -3 75 -12 66 -22 -22 -59 -13 -92 22 -28 30 -37 34 -107 40 -79
7 -162 -10 -184 -38 -29 -36 -106 -48 -141 -21 -37 28 -125 15 -169 -24 -24
-21 -115 -57 -167 -66 -21 -3 -51 -17 -67 -31 -29 -24 -31 -24 -60 -9 -50 25
-99 15 -129 -27 -9 -12 -23 -18 -40 -16 -32 4 -57 47 -74 132 -10 47 -10 60 5
91 17 35 17 35 -14 70 -26 29 -29 38 -19 50 7 8 21 15 31 15 23 0 89 -39 89
-53 0 -6 7 -18 16 -28 20 -22 68 -16 99 12 28 25 165 89 191 89 30 0 107 -28
116 -43 5 -8 11 -8 16 -2 12 17 33 16 61 -2 31 -21 61 -40 79 -49 20 -10 60 5
67 26 12 38 56 50 207 56 79 3 151 11 162 16 19 10 36 -3 36 -29 0 -9 13 -12
43 -9 23 3 45 5 50 5 4 1 7 349 7 774 l0 774 -24 11 c-17 7 -36 7 -66 0 -40
-10 -43 -10 -65 18 -13 16 -27 41 -30 56 -3 14 -13 29 -20 32 -17 6 -45 -19
-45 -39 0 -8 -10 -20 -22 -26 -20 -11 -20 -12 17 -25 34 -11 54 -28 55 -45 0
-10 -79 -79 -90 -79 -13 0 -62 31 -72 44 -9 14 27 82 48 90 15 6 13 11 -14 36
-40 36 -40 49 1 86 l32 30 34 -23 c43 -29 51 -29 51 2 0 25 25 54 70 83 30 19
52 37 90 75 15 15 33 27 39 27 7 0 11 21 11 53 0 52 -1 54 -42 78 -48 27 -117
58 -133 58 -6 1 -9 -13 -7 -31 3 -28 -4 -41 -52 -91 -69 -73 -74 -87 -44 -143
l23 -45 -25 -19 c-20 -16 -39 -19 -95 -17 -64 2 -73 -1 -108 -27 -41 -31 -124
-58 -154 -49 -10 3 -35 32 -57 64 -21 33 -43 58 -50 56 -6 -2 -12 -28 -14 -58
-2 -30 -10 -61 -18 -71 -9 -9 -16 -22 -18 -30 -1 -7 -16 -33 -34 -57 -29 -40
-32 -49 -26 -91 9 -66 -5 -86 -67 -99 -44 -10 -55 -9 -70 5 -10 9 -23 13 -28
9 -6 -3 -18 1 -27 9 -8 9 -23 16 -32 17 -9 0 -30 2 -47 3 -16 1 -46 -1 -65 -4
-29 -4 -35 -10 -35 -30 -1 -22 -5 -25 -40 -26 -84 -2 -82 -1 -81 -39 1 -29 -4
-39 -27 -53 -31 -19 -49 -12 -75 30 -15 25 -15 28 3 48 14 15 26 19 49 14 29
-5 35 -1 64 39 18 25 32 51 32 58 0 8 15 10 53 5 86 -10 115 30 67 92 -19 24
-36 32 -72 38 -44 6 -88 33 -88 54 0 5 -11 12 -25 16 -28 7 -33 29 -10 38 21
8 64 -10 72 -30 4 -12 9 -8 19 16 24 55 18 74 -33 114 -70 55 -103 47 -103
-25 0 -31 1 -31 -107 -33 -61 -1 -83 -29 -83 -105 0 -41 -5 -65 -16 -75 -8 -9
-18 -16 -20 -16 -11 0 -94 52 -94 58 0 9 27 50 61 94 47 60 44 113 -5 90 -25
-11 -75 -95 -77 -129 0 -10 -43 -56 -95 -103 -52 -47 -101 -91 -109 -98 -8 -7
-30 -16 -49 -19 -28 -4 -35 -2 -38 13 -6 28 9 74 28 88 11 9 14 19 10 34 -9
28 -44 29 -99 1 -50 -26 -99 -28 -149 -6 -42 18 -47 34 -20 66 12 15 33 23 72
28 74 8 113 42 104 90 -5 28 -3 34 19 42 35 14 40 37 11 55 -13 9 -24 23 -24
30 0 8 -6 16 -12 19 -18 6 -68 -34 -68 -54 0 -19 -26 -33 -43 -22 -5 3 -39 7
-74 7 -69 1 -87 14 -78 53 3 12 1 33 -5 47 -7 20 -16 26 -40 26 -17 0 -41 7
-55 16 -21 14 -28 14 -73 -2 -62 -22 -102 -10 -102 30 0 35 32 50 90 42 39 -5
50 -3 65 14 15 16 16 24 7 45 -10 21 -19 24 -69 27 -45 2 -59 7 -61 20 -5 24
35 42 88 40 25 -1 59 5 75 12 27 13 12 14 -147 15 -160 1 -178 -1 -178 -16z
m2626 -328 c27 -42 0 -60 -38 -25 -17 16 -19 22 -8 35 17 21 27 19 46 -10z
m-2009 -61 c-3 -3 -12 -4 -19 -1 -8 3 -5 6 6 6 11 1 17 -2 13 -5z m-1893 -110
c19 -19 21 -48 3 -62 -15 -13 -88 -19 -105 -8 -17 10 -15 52 4 70 8 9 31 16
49 16 18 0 41 -7 49 -16z m125 -29 c10 -38 -2 -105 -20 -105 -5 0 -14 11 -20
24 -9 19 -8 34 6 70 10 25 19 46 21 46 2 0 7 -16 13 -35z m3489 -241 c20 -36
-11 -87 -65 -110 -23 -10 -40 -29 -58 -64 -30 -59 -57 -78 -87 -58 -23 16 -91
140 -80 148 4 3 12 13 17 24 14 24 156 73 217 75 34 1 50 -4 56 -15z m-2388
-29 c13 -14 22 -27 19 -29 -13 -13 -111 -45 -124 -40 -41 16 14 89 71 93 6 1
21 -10 34 -24z m-254 -10 c-10 -8 -23 -12 -29 -8 -5 3 1 12 14 19 30 15 41 7
15 -11z m874 -12 c0 -14 -16 -48 -35 -77 -34 -51 -44 -86 -26 -86 5 0 14 7 21
15 16 19 39 19 78 -1 36 -17 42 -25 58 -72 11 -30 9 -36 -14 -64 -14 -17 -41
-37 -59 -44 -24 -11 -33 -21 -33 -38 0 -13 -7 -29 -15 -36 -8 -7 -15 -21 -15
-32 0 -11 -13 -32 -29 -48 -23 -23 -25 -30 -13 -35 10 -4 12 -9 6 -15 -14 -14
-61 10 -74 38 -12 26 0 55 27 71 11 6 18 23 19 48 1 21 5 53 9 72 8 37 -3 51
-43 51 -13 0 -36 9 -50 21 l-27 21 -6 -29 c-14 -68 -55 -97 -105 -74 -29 13
-33 59 -9 105 18 35 19 46 3 46 -7 0 -41 27 -76 60 -34 33 -67 60 -72 60 -6 0
-10 6 -10 13 0 12 18 19 117 44 41 10 72 -5 88 -43 8 -20 15 -44 15 -54 0 -9
9 -27 20 -40 11 -13 20 -36 20 -52 0 -15 5 -28 10 -28 6 0 10 13 10 29 0 17 5
33 11 36 5 4 9 17 7 29 -1 12 7 33 20 46 12 13 22 31 22 40 0 23 88 59 128 52
16 -3 22 -11 22 -29z m2039 20 c31 -18 51 -51 51 -81 -1 -26 -46 -73 -64 -66
-23 9 -117 125 -113 138 3 10 41 22 79 25 9 0 30 -7 47 -16z m-725 -128 c30
-39 28 -70 -5 -80 -21 -7 -78 28 -80 48 -7 72 41 90 85 32z m-744 -3 c0 -28
-10 -32 -36 -15 -32 21 -30 33 6 33 22 0 30 -5 30 -18z m-1667 -19 c19 -5 23
-43 7 -74 -15 -27 -61 -24 -95 5 -22 19 -26 29 -21 50 6 23 11 26 49 25 23 -1
50 -3 60 -6z m1653 -50 c-4 -24 -26 -29 -26 -5 0 10 3 22 6 25 11 10 22 -2 20
-20z m1384 -53 c15 -29 9 -74 -11 -78 -15 -3 -79 51 -79 67 0 34 73 42 90 11z
m-1813 -12 c-3 -8 -6 -5 -6 6 -1 11 2 17 5 13 3 -3 4 -12 1 -19z m502 -27 c24
-34 27 -68 7 -96 -21 -30 -109 -23 -131 11 -15 23 -14 26 10 52 14 15 25 30
25 35 0 8 37 25 57 26 6 1 21 -12 32 -28z m-1332 -20 c28 -42 28 -44 0 -76
-22 -26 -24 -27 -65 -15 -46 14 -57 34 -47 80 13 60 75 66 112 11z m1889 11
c-22 -5 -30 3 -21 18 5 8 11 7 22 -2 15 -12 14 -13 -1 -16z m-245 -31 c4 -3 9
-15 12 -26 5 -15 -5 -28 -40 -54 -71 -52 -95 -58 -137 -36 -52 28 -45 56 29
113 25 20 36 22 80 17 27 -4 53 -10 56 -14z m-495 -15 c20 -28 -1 -73 -47 -96
-37 -19 -40 -19 -86 -2 -46 17 -48 19 -48 57 0 32 5 42 25 53 36 19 139 11
156 -12z m1131 -110 c25 -21 26 -26 15 -50 -19 -42 -52 -49 -84 -18 -32 30
-35 48 -11 74 22 24 46 23 80 -6z m-1957 -6 c34 -34 23 -50 -50 -68 -31 -8
-48 -8 -57 0 -17 14 -17 17 7 56 24 38 68 44 100 12z m135 -38 c6 -4 16 -17
23 -29 10 -19 10 -27 0 -43 -15 -24 -22 -25 -37 -6 -9 11 -10 20 -1 35 9 18 8
21 -10 21 -11 0 -20 7 -20 15 0 16 28 20 45 7z m1522 -48 c-3 -3 -12 -4 -19
-1 -8 3 -5 6 6 6 11 1 17 -2 13 -5z m773 -56 c0 -11 -9 -33 -21 -49 -20 -28
-25 -30 -78 -27 -49 3 -56 6 -59 26 -2 12 1 22 7 22 6 0 11 6 11 14 0 21 54
42 99 38 33 -3 41 -8 41 -24z m-467 -38 c6 -24 -12 -38 -24 -19 -13 21 -11 39
5 39 7 0 16 -9 19 -20z m313 -95 c18 -15 18 -16 -11 -40 -29 -24 -48 -19 -39
12 2 7 6 20 9 28 6 19 16 19 41 0z m-637 -47 c13 -23 12 -29 -15 -71 -52 -81
-124 -65 -124 27 0 51 3 54 62 65 55 11 60 10 77 -21z m-296 -60 c6 -8 7 -23
4 -32 -8 -20 -53 -21 -61 -1 -3 8 -2 15 3 15 5 0 11 9 14 21 6 23 25 22 40 -3z
m1094 -14 c2 -6 -5 -21 -15 -34 -17 -21 -19 -21 -35 -6 -14 14 -14 20 -4 37
12 20 48 22 54 3z m-479 -44 c3 -18 -46 -48 -70 -43 -12 3 -18 14 -18 34 0 29
1 30 42 27 29 -2 44 -8 46 -18z m-1353 -82 c26 5 8 -13 -22 -23 -20 -5 -23 -3
-23 22 1 24 2 26 13 13 7 -9 21 -14 32 -12z m-651 -29 c32 -25 33 -42 4 -69
-26 -24 -36 -17 -54 37 -20 57 1 71 50 32z m995 -3 c28 -23 47 -25 91 -5 l43
19 37 -24 c25 -16 42 -39 54 -70 22 -58 14 -71 -52 -82 -56 -9 -65 -8 -116 17
-58 28 -62 24 -21 -22 32 -36 36 -46 32 -76 -7 -39 -33 -65 -59 -57 -11 3 -23
-4 -34 -21 -15 -23 -15 -28 -3 -36 8 -5 20 -9 27 -9 14 0 16 -16 2 -25 -5 -3
-10 -17 -10 -30 0 -34 -18 -40 -45 -15 -22 21 -29 22 -88 13 -35 -5 -75 -6
-88 -2 -14 3 -43 6 -65 5 -32 -1 -38 -4 -36 -19 5 -26 -22 -62 -58 -81 -29
-14 -32 -14 -52 6 -17 17 -19 28 -14 72 4 28 11 55 16 60 5 5 44 10 87 12 76
3 79 4 111 41 18 21 48 67 65 102 28 56 39 68 84 90 29 14 53 29 53 32 0 4
-20 12 -44 19 -43 12 -46 11 -90 -20 -70 -47 -126 -44 -126 9 0 42 30 63 83
60 32 -2 50 2 63 15 44 44 116 54 153 22z m-739 -27 c0 -39 -83 -39 -88 0 -3
19 0 22 13 18 9 -4 13 -3 10 2 -7 13 37 19 53 8 6 -5 12 -18 12 -28z m360 7
c0 -20 -26 -40 -35 -26 -10 16 2 40 20 40 8 0 15 -6 15 -14z m-1561 -142 c-6
-7 -10 -21 -9 -31 1 -10 2 -31 1 -48 -2 -28 -3 -27 -24 20 -30 68 -37 77 -52
71 -7 -2 -15 1 -18 7 -3 7 14 21 39 32 33 15 45 26 51 50 6 27 8 24 15 -29 5
-39 4 -64 -3 -72z m1398 15 c49 -24 58 -55 19 -65 -47 -11 -96 14 -96 51 0 41
15 44 77 14z m903 6 c0 -8 -8 -15 -17 -15 -12 0 -14 -3 -6 -8 8 -5 9 -13 3
-22 -7 -12 -12 -12 -21 -3 -9 9 -8 18 5 37 18 29 36 34 36 11z m697 9 c13 -4
32 -21 44 -40 17 -28 19 -43 14 -89 -7 -52 -10 -57 -46 -75 -50 -26 -86 -26
-94 0 -3 11 -4 24 0 29 3 5 10 45 15 87 11 89 20 100 67 88z m-2687 -14 c0 -5
-2 -10 -4 -10 -3 0 -8 5 -11 10 -3 6 -1 10 4 10 6 0 11 -4 11 -10z m450 -20
c40 -40 15 -90 -44 -90 -104 0 -143 67 -52 90 22 6 46 13 51 15 19 7 25 5 45
-15z m-820 -10 c0 -5 -5 -10 -11 -10 -5 0 -7 5 -4 10 3 6 8 10 11 10 2 0 4 -4
4 -10z m590 -48 c0 -3 -7 3 -15 14 -8 10 -14 26 -15 34 0 8 7 2 15 -14 8 -15
15 -31 15 -34z m50 8 c0 -16 -4 -30 -10 -30 -11 0 -14 43 -3 53 11 12 13 8 13
-23z m478 4 c24 -7 12 -50 -28 -97 -21 -26 -37 -54 -34 -61 3 -8 1 -17 -5 -21
-6 -3 -11 -18 -11 -33 0 -23 -13 -52 -37 -81 -5 -7 -63 51 -63 64 0 6 -14 27
-31 48 -25 30 -29 40 -19 52 7 9 22 12 38 9 39 -8 100 21 108 50 3 14 3 30 -1
35 -3 6 -1 20 5 31 10 20 26 20 78 4z m-4347 -124 c10 -6 25 -23 33 -39 14
-27 14 -29 -7 -39 -45 -21 -123 49 -90 81 10 10 42 8 64 -3z m3913 -24 c12 4
26 9 33 11 15 6 55 -35 50 -50 -2 -6 -17 -14 -34 -18 -41 -8 -53 -17 -53 -40
0 -21 -19 -27 -21 -6 -2 17 -1 19 6 42 5 16 5 17 -3 5 -8 -11 -11 -8 -10 15 1
17 -2 41 -6 55 -6 25 -6 25 6 2 8 -17 17 -21 32 -16z m1463 11 c23 -4 37 -2
48 9 14 14 22 15 60 4 24 -7 53 -22 64 -34 32 -34 10 -56 -65 -65 -38 -4 -72
-15 -92 -30 -18 -13 -39 -21 -46 -18 -8 3 -22 26 -31 51 -17 43 -17 48 -1 64
9 10 16 25 16 33 0 9 3 10 8 3 4 -6 21 -14 39 -17z m-1560 -19 c-3 -7 -5 -2
-5 12 0 14 2 19 5 13 2 -7 2 -19 0 -25z m-1252 -28 c3 -5 1 -10 -4 -10 -6 0
-11 5 -11 10 0 6 2 10 4 10 3 0 8 -4 11 -10z m1228 -64 c-10 -27 -21 -46 -24
-45 -11 7 -39 -24 -37 -40 2 -9 -3 -15 -10 -13 -8 1 -11 -2 -7 -8 12 -20 -86
-53 -165 -56 -41 -2 -65 0 -52 2 13 3 22 13 22 25 0 13 7 19 21 19 11 0 17 -4
14 -10 -3 -6 1 -7 10 -4 14 6 14 8 -2 20 -16 13 -15 14 12 8 17 -3 36 -7 43
-10 8 -2 10 1 6 8 -5 8 -2 9 10 5 17 -7 54 18 43 30 -3 3 0 11 6 18 9 10 15
10 26 1 11 -8 13 -8 8 1 -8 13 27 28 42 19 9 -6 40 61 42 92 1 14 2 14 6 1 2
-9 -4 -37 -14 -63z m-981 49 c0 -5 -5 -11 -11 -13 -6 -2 -11 4 -11 13 0 9 5
15 11 13 6 -2 11 -8 11 -13z m-2947 -45 c51 -24 81 -56 90 -92 6 -22 1 -33
-23 -58 -45 -45 -76 -40 -134 20 -53 55 -62 93 -31 130 22 25 46 25 98 0z
m4065 -77 c11 -26 19 -54 17 -63 -3 -9 -5 -7 -6 7 0 12 -5 24 -10 27 -5 3 -7
-39 -4 -94 2 -55 0 -99 -4 -98 -5 1 -17 -3 -29 -9 -29 -16 -67 -13 -52 4 7 9
6 14 -5 19 -9 3 -13 12 -11 19 7 18 -24 65 -43 65 -8 0 -12 4 -9 9 9 14 -16
19 -42 10 -20 -8 -21 -7 -12 11 7 13 7 20 1 20 -16 0 -33 -38 -21 -45 16 -10
12 -28 -5 -21 -12 4 -14 2 -7 -11 12 -20 55 -26 48 -6 -6 16 -1 16 25 3 10 -6
19 -17 19 -25 0 -7 3 -15 8 -18 4 -2 1 -2 -5 -1 -7 2 -13 -1 -13 -7 0 -19 -24
-36 -44 -31 -16 4 -18 1 -14 -16 5 -17 2 -22 -12 -22 -10 0 -21 6 -23 13 -4 9
-8 9 -15 -2 -6 -8 -15 -10 -23 -6 -16 11 -70 12 -76 3 -2 -5 -13 -8 -24 -8
-23 0 -26 25 -4 34 13 5 13 9 3 25 -9 15 -15 17 -21 8 -6 -9 -7 -8 -4 3 5 20
56 23 64 4 7 -18 32 -18 57 1 19 15 19 16 -9 45 -20 21 -39 30 -64 31 -34 2
-34 2 -6 6 105 14 188 60 221 124 8 16 21 29 30 29 8 0 13 -3 11 -7 -3 -5 8
-8 24 -9 18 -1 29 4 29 12 0 8 9 14 20 14 13 0 25 -14 40 -47z m-178 -5 c-7
-7 -12 -8 -12 -2 0 14 12 26 19 19 2 -3 -1 -11 -7 -17z m2942 -28 c35 -13 66
-66 66 -112 0 -26 4 -38 14 -38 28 0 27 -21 -1 -58 -16 -20 -34 -49 -40 -64
-15 -33 -69 -52 -126 -44 -23 4 -67 9 -97 12 -30 3 -61 11 -67 16 -18 15 -73
113 -73 130 0 29 28 51 70 57 37 5 44 10 54 40 9 29 19 37 61 52 58 20 103 23
139 9z m-2441 -43 c-3 -47 -48 -130 -82 -150 -22 -13 -30 -13 -51 -2 -14 8
-34 27 -45 44 -11 17 -23 31 -27 31 -5 0 -8 5 -8 11 0 5 5 7 10 4 6 -3 10 0
10 8 0 8 8 17 18 20 9 4 44 22 77 41 78 46 101 44 98 -7z m-833 18 c0 -8 -4
-15 -10 -15 -5 0 -7 7 -4 15 4 8 8 15 10 15 2 0 4 -7 4 -15z m610 -67 c0 -5
-7 -8 -15 -8 -8 0 -15 -8 -16 -17 0 -13 -3 -11 -10 7 -6 13 -7 36 -4 50 l7 25
19 -25 c10 -14 19 -28 19 -32z m-573 36 c-3 -3 -12 -4 -19 -1 -8 3 -5 6 6 6
11 1 17 -2 13 -5z m500 -16 c-3 -8 -6 -5 -6 6 -1 11 2 17 5 13 3 -3 4 -12 1
-19z m-661 -82 c4 -25 3 -26 -16 -16 -23 13 -24 16 -7 34 15 17 17 16 23 -18z
m114 -3 c0 -21 -3 -24 -9 -14 -5 8 -7 20 -4 28 8 21 13 15 13 -14z m2584 -25
c13 -12 34 -17 66 -17 25 1 56 -1 67 -5 24 -8 36 -42 23 -67 -15 -27 -111 -92
-165 -110 -44 -16 -52 -16 -78 -2 -29 15 -29 16 -25 84 4 52 12 79 32 109 28
42 42 44 80 8z m-1199 -8 c8 -13 -20 -24 -41 -16 -20 8 -9 26 16 26 10 0 22
-5 25 -10z m1494 -137 c1 -16 -35 -17 -44 -2 -4 5 1 19 11 30 17 19 19 19 25
2 4 -10 8 -24 8 -30z m-5343 -49 c-7 -18 -45 -18 -68 0 -26 20 -22 36 10 36
15 0 34 5 42 10 11 7 16 5 18 -11 2 -11 1 -27 -2 -35z m3247 -34 c22 -37 15
-65 -21 -78 -29 -10 -81 2 -94 22 -26 39 11 86 67 86 24 0 35 -7 48 -30z
m1396 21 c9 -6 12 -19 7 -43 -12 -65 -56 -93 -96 -60 -25 21 -23 43 11 86 21
26 52 33 78 17z m-2163 -48 c-8 -8 -12 -3 -21 27 l-7 25 17 -23 c9 -13 14 -26
11 -29z m3007 -22 c31 -53 19 -141 -21 -141 -20 0 -129 77 -136 96 -10 26 24
55 68 58 20 2 39 6 43 10 13 13 29 5 46 -23z m-3073 -8 c0 -13 -3 -13 -15 -3
-8 7 -12 16 -9 21 8 13 24 1 24 -18z m587 5 c-3 -8 -6 -5 -6 6 -1 11 2 17 5
13 3 -3 4 -12 1 -19z m-746 -26 c13 -10 41 -26 62 -36 36 -16 42 -25 38 -55
-2 -7 2 -10 8 -7 6 4 17 -7 26 -25 9 -17 12 -28 7 -25 -6 3 -21 2 -34 -3 l-23
-10 25 -1 c25 -1 25 -1 5 -17 -19 -15 -18 -15 19 -10 21 4 36 4 33 1 -3 -3 8
-19 23 -36 16 -17 40 -53 55 -81 25 -44 26 -51 11 -59 -9 -5 -16 -14 -16 -19
0 -6 4 -8 9 -5 5 3 12 -6 15 -20 6 -21 9 -24 22 -14 12 10 18 8 34 -10 25 -29
25 -21 1 27 -27 54 -36 87 -21 78 9 -6 9 -2 0 15 -13 24 -7 34 28 45 31 9 47
-31 23 -60 -15 -18 -15 -19 1 -7 11 9 18 10 23 2 3 -5 2 -10 -3 -10 -30 0 -16
-75 21 -112 26 -27 34 -21 8 6 -13 13 -21 32 -19 42 2 12 15 -6 37 -48 25 -51
45 -74 82 -100 28 -19 70 -63 99 -103 42 -60 54 -70 78 -69 16 0 33 3 38 6 5
4 10 -16 11 -44 1 -33 7 -57 21 -71 51 -58 187 -346 289 -612 76 -200 164
-361 249 -456 54 -61 104 -153 104 -192 0 -22 -49 -117 -74 -144 -15 -15 -26
-33 -26 -40 0 -19 -15 -23 -54 -12 -40 11 -68 6 -91 -17 -20 -21 -19 -31 5
-37 27 -7 26 -54 -2 -84 -22 -23 -43 -30 -50 -15 -10 24 -73 54 -121 57 -54 3
-129 31 -179 66 -16 12 -38 19 -48 16 -15 -4 -20 0 -20 13 0 10 5 20 12 22 7
3 -2 13 -20 23 -18 11 -35 27 -38 37 -3 10 -13 18 -22 18 -15 1 -14 3 2 15 19
14 18 15 -11 15 -17 0 -36 7 -43 15 -10 12 -10 15 3 15 9 0 19 5 23 12 4 7 3
8 -4 4 -12 -7 -116 23 -108 32 3 2 -9 12 -27 21 -17 9 -32 24 -32 33 0 22 -8
29 -36 32 -38 4 -69 25 -69 46 0 11 -11 30 -25 42 -24 20 -36 46 -16 34 5 -4
7 3 4 15 -3 12 -9 16 -12 10 -10 -15 -44 128 -39 164 2 21 9 31 23 33 46 7 48
15 6 23 -44 9 -62 22 -94 71 -17 27 -17 28 13 62 l31 35 -50 -22 c-48 -20 -53
-20 -99 -5 -32 10 -56 12 -71 6 -30 -11 -92 -64 -84 -72 4 -3 1 -6 -5 -6 -8 0
-12 22 -12 66 0 61 -3 69 -30 96 -19 18 -30 38 -30 56 0 46 59 266 78 291 26
35 127 88 205 107 l66 17 -17 41 c-8 22 -29 64 -45 91 -49 82 -103 222 -92
234 3 2 1 9 -5 15 -15 19 -79 177 -86 213 -3 18 -10 35 -14 38 -4 2 -4 25 0
50 4 25 4 48 0 50 -8 5 -11 171 -4 198 7 22 15 22 45 -1z m226 -75 c-3 -11
-23 -7 -19 4 1 5 -2 9 -8 9 -5 0 -10 -8 -11 -17 0 -15 -2 -15 -8 2 -5 12 -4
23 2 27 12 7 48 -13 44 -25z m-946 5 c-13 -24 -51 -58 -51 -45 0 6 9 22 21 37
23 30 45 36 30 8z m989 -45 c9 -3 4 -6 -12 -6 -21 -1 -26 3 -21 15 3 9 9 11
12 6 3 -5 13 -12 21 -15z m-2589 -7 c30 -16 23 -30 -15 -30 -36 0 -52 12 -41
30 8 13 31 13 56 0z m3178 -4 c6 -8 33 -23 60 -35 49 -21 87 -62 78 -85 -3 -7
-31 -28 -64 -47 -55 -32 -61 -34 -110 -25 -43 7 -52 13 -58 34 -3 14 -13 31
-20 36 -20 16 -27 58 -12 76 41 51 103 73 126 46z m-536 -23 c-7 -2 -13 -13
-13 -24 0 -10 -4 -19 -10 -19 -13 0 -13 6 0 31 6 10 16 19 23 18 9 0 9 -2 0
-6z m14 -95 c-3 -8 -6 -5 -6 6 -1 11 2 17 5 13 3 -3 4 -12 1 -19z m2733 -40
c0 -46 -53 -179 -77 -196 -56 -36 -101 17 -102 119 -1 56 9 66 81 84 82 20 98
19 98 -7z m-5360 -83 c-11 -31 -17 -62 -14 -67 3 -5 -1 -20 -10 -33 -20 -31
-20 -46 -1 -39 18 7 19 -8 2 -56 -7 -19 -12 -52 -11 -72 1 -40 -4 -46 -25 -25
-17 17 -51 -25 -51 -63 0 -16 -3 -36 -6 -45 -5 -13 -2 -16 11 -14 10 2 24 20
32 39 l13 35 -6 -34 c-5 -29 -4 -33 10 -28 24 9 20 -16 -6 -40 -30 -28 -128
-37 -128 -12 0 9 6 22 14 28 8 6 24 35 36 64 12 29 34 67 48 86 19 26 27 52
33 110 12 108 23 153 49 195 12 21 24 35 26 33 2 -2 -5 -30 -16 -62z m3178
-60 c2 -9 -13 -51 -33 -93 -20 -43 -46 -97 -58 -122 -37 -78 -58 -80 -92 -6
-14 30 -25 57 -25 61 0 3 12 10 26 16 26 9 27 11 20 71 -7 72 2 88 53 88 20 0
42 4 50 9 19 12 55 -2 59 -24z m1725 -54 c20 -20 14 -46 -13 -61 -36 -19 -143
51 -125 80 11 18 116 4 138 -19z m-393 -25 c0 -39 -116 -110 -148 -90 -32 20
-19 46 38 81 68 41 110 44 110 9z m-461 -115 c16 -10 6 -51 -13 -51 -7 0 -23
-11 -36 -25 -25 -27 -83 -50 -100 -40 -31 19 -29 43 6 84 32 37 40 41 82 41
26 0 53 -4 61 -9z m-349 -86 c0 -39 -84 -125 -121 -125 -9 0 -10 -3 -2 -11 6
-6 44 -17 84 -24 131 -26 172 -36 259 -67 121 -43 180 -69 180 -79 0 -5 12 -9
28 -9 46 0 58 -14 33 -39 -11 -11 -21 -28 -21 -38 0 -13 -4 -11 -20 7 -11 13
-20 31 -20 41 0 21 -31 39 -119 69 l-63 21 -32 -24 c-28 -22 -36 -24 -91 -16
-86 12 -125 3 -137 -32 l-10 -29 -31 18 c-16 9 -55 31 -86 47 -68 37 -82 57
-58 83 9 10 17 26 17 36 0 17 -9 17 -56 -1 -7 -2 -15 0 -19 6 -14 24 -54 11
-82 -26 l-28 -36 -6 39 c-7 43 6 81 30 86 9 2 30 -5 48 -15 36 -21 69 -16 78
13 13 40 47 70 98 85 29 8 59 20 67 25 24 16 80 12 80 -5z m-2780 -11 c0 -8
-5 -12 -10 -9 -6 4 -8 11 -5 16 9 14 15 11 15 -7z m2350 -71 c0 -16 -53 -61
-66 -56 -21 8 -17 29 9 46 23 16 57 22 57 10z m-90 -13 c3 0 -3 -5 -13 -11 -9
-6 -27 -7 -40 -3 -21 7 -21 7 -2 14 17 6 28 6 55 0z m-3286 -79 c59 -21 68
-37 27 -46 -17 -4 -31 -11 -31 -16 0 -6 -4 -8 -9 -5 -5 3 -4 -12 1 -35 10 -36
8 -42 -11 -60 -33 -31 -55 -21 -62 28 -9 71 -32 71 -43 1 -4 -23 -12 -46 -19
-50 -7 -4 -14 -40 -17 -80 -5 -54 -8 -68 -15 -53 -13 30 -69 115 -104 159 -40
50 -49 31 -27 -57 9 -35 16 -75 16 -89 0 -14 4 -38 9 -54 5 -16 14 -56 21 -89
6 -33 15 -69 19 -80 14 -36 1 -46 -23 -17 -12 15 -25 35 -29 45 -8 22 -26 18
-51 -11 -22 -28 -32 -20 -40 32 -4 22 -13 59 -21 83 -18 52 -19 89 -4 147 6
24 9 56 7 72 -3 24 -8 16 -28 -46 -31 -98 -31 -261 0 -326 23 -46 24 -54 10
-54 -6 0 -20 -9 -32 -20 -15 -14 -25 -17 -39 -10 -27 15 -31 12 -17 -12 7 -13
11 -27 9 -33 -8 -25 -8 -55 0 -61 5 -3 9 -12 9 -21 0 -9 8 -25 17 -35 15 -17
15 -20 3 -28 -22 -14 -26 -12 -38 15 -7 15 -8 26 -1 30 13 9 3 22 -22 28 -16
4 -19 2 -14 -10 8 -22 -15 -35 -31 -18 -7 7 -23 32 -34 56 -12 24 -28 55 -36
69 -8 14 -22 40 -32 58 -16 32 -15 34 1 43 26 15 21 26 -23 54 -48 30 -57 31
-65 6 -4 -12 6 -36 27 -67 22 -33 34 -66 40 -108 5 -33 14 -63 20 -67 7 -5 9
-11 5 -15 -4 -4 -16 1 -28 12 -11 10 -30 19 -42 19 -18 0 -24 9 -33 44 -6 25
-15 46 -22 49 -16 5 -62 -28 -62 -46 0 -19 29 -52 45 -52 10 0 78 -73 125
-135 25 -33 -41 18 -126 96 -40 38 -79 69 -84 69 -22 0 -70 -31 -70 -44 0 -18
55 -65 95 -82 17 -7 47 -31 68 -53 21 -23 42 -41 47 -41 5 0 11 -18 15 -41 5
-31 19 -53 62 -95 64 -62 56 -78 -26 -48 -41 14 -53 15 -65 5 -13 -11 -18 -10
-32 4 -53 53 -187 76 -264 45 -46 -18 -46 -17 -25 -40 13 -15 31 -20 65 -20
56 0 125 -22 164 -53 26 -21 27 -25 15 -45 -7 -11 -24 -24 -37 -27 -26 -6 -25
-30 1 -30 8 0 19 -4 23 -8 4 -4 24 -7 44 -7 23 0 48 -9 71 -26 l34 -26 -62 7
c-35 4 -84 2 -115 -4 -49 -10 -59 -9 -117 14 -102 42 -171 108 -171 164 0 11
14 36 30 55 17 19 38 56 47 83 18 55 36 79 75 99 36 19 48 18 48 -5 0 -10 7
-25 16 -32 15 -12 16 -11 9 11 -4 14 -18 41 -31 61 -41 66 -36 105 22 163 26
25 56 67 69 93 12 26 31 56 43 66 17 16 23 16 41 5 12 -7 24 -20 26 -29 3 -9
15 -25 27 -35 18 -16 18 -13 -6 26 -54 90 -55 80 15 168 51 64 78 87 134 117
61 33 185 145 185 166 0 7 86 49 140 69 19 6 73 27 120 46 97 38 107 39 174
15z m796 -76 c0 -7 -73 -55 -84 -55 -5 0 11 13 35 30 47 31 49 33 49 25z
m3585 -127 c33 -15 32 -30 -6 -47 -32 -14 -50 -8 -31 11 9 9 8 16 -5 30 -15
16 -15 18 0 18 9 0 28 -5 42 -12z m-3491 -53 c-7 -16 -24 -21 -24 -6 0 8 7 13
27 20 1 1 0 -6 -3 -14z m3696 -150 c17 -9 30 -20 30 -26 0 -19 -52 -4 -68 19
-17 27 -5 29 38 7z m-3929 -44 c-6 -10 -17 -23 -25 -31 -22 -17 -22 7 0 38 18
26 39 20 25 -7z m-1381 -61 c0 -5 -2 -10 -4 -10 -3 0 -8 5 -11 10 -3 6 -1 10
4 10 6 0 11 -4 11 -10z m5464 -20 c8 0 16 -7 20 -15 6 -17 -7 -19 -35 -5 -10
6 -19 21 -19 33 1 20 2 20 11 5 5 -10 16 -18 23 -18z m-4044 -34 c0 -2 -7 -7
-16 -10 -8 -3 -12 -2 -9 4 6 10 25 14 25 6z m-71 -10 c-2 -2 -14 -9 -26 -15
-19 -10 -22 -9 -17 4 4 8 15 15 27 15 11 0 18 -2 16 -4z m-1019 -46 c0 -5 -13
-16 -30 -25 -34 -17 -40 -18 -40 -6 0 5 14 12 30 16 17 4 30 11 30 16 0 5 2 9
5 9 3 0 5 -4 5 -10z m-5 -61 c-16 -4 -33 -5 -37 -1 -4 4 10 8 30 9 37 1 37 1
7 -8z m35 -39 c-20 -13 -33 -13 -25 0 3 6 14 10 23 10 15 0 15 -2 2 -10z
m6035 -100 c3 -5 -3 -10 -14 -10 -12 0 -21 5 -21 10 0 6 6 10 14 10 8 0 18 -4
21 -10z m-5915 -34 c0 -9 -40 -13 -46 -5 -3 5 6 9 20 9 14 0 26 -2 26 -4z
m5907 -27 c2 -21 -19 -35 -36 -25 -14 9 -3 34 17 39 10 3 17 5 17 6 1 0 1 -8
2 -20z m-6176 -42 c-13 -13 -26 -3 -16 12 3 6 11 8 17 5 6 -4 6 -10 -1 -17z
m1255 -110 c-10 -7 -40 -27 -65 -44 -25 -18 -55 -38 -66 -44 -19 -11 -19 -11
-5 6 18 22 130 95 145 94 6 0 2 -6 -9 -12z m7 -36 c-3 -11 -20 -23 -43 -30
-20 -6 -55 -27 -75 -46 -21 -19 -43 -31 -49 -28 -6 3 -8 3 -4 -2 4 -4 2 -15
-5 -23 -10 -13 -9 -14 3 -7 8 4 29 18 45 30 32 24 135 78 135 71 0 -2 -35 -25
-77 -52 -43 -26 -88 -56 -100 -67 -20 -18 -23 -18 -23 -4 0 14 -4 14 -25 -5
-28 -24 -26 -39 2 -17 15 12 15 10 -1 -9 -16 -19 -20 -20 -30 -7 -10 13 -16
12 -48 -10 -20 -14 -79 -46 -130 -72 -51 -27 -93 -52 -93 -58 -1 -5 -9 -25
-19 -43 -11 -22 -15 -45 -12 -65 4 -22 3 -26 -2 -12 -8 18 -9 17 -15 -7 -4
-14 -10 -33 -13 -42 -5 -12 0 -14 23 -10 15 3 35 11 43 18 16 13 80 34 119 38
47 6 31 -19 -29 -43 -33 -13 -60 -27 -60 -30 0 -13 -82 -20 -96 -8 -8 6 -15 9
-15 5 -6 -29 -27 -74 -38 -80 -6 -4 -18 -31 -27 -61 -10 -30 -19 -53 -21 -52
-3 3 39 176 52 212 6 16 5 17 -4 5 -12 -17 -14 -6 -4 28 4 17 8 20 14 11 4 -8
6 3 5 24 -2 23 2 40 9 45 19 10 22 44 6 50 -10 3 -12 -1 -8 -19 6 -22 5 -23
-8 -6 -12 17 -15 16 -49 -14 -33 -29 -71 -79 -49 -66 4 3 17 -2 28 -10 20 -16
20 -16 0 -9 -15 5 -17 4 -9 -4 13 -13 6 -53 -7 -44 -5 3 -9 14 -9 25 0 30 -28
34 -57 8 -32 -30 -113 -143 -113 -158 0 -6 -4 -11 -9 -11 -5 0 -24 -26 -42
-57 -72 -128 -166 -261 -187 -264 -47 -7 -82 -6 -82 2 0 5 -9 9 -20 9 -23 0
-27 22 -7 38 10 9 19 8 33 -3 22 -15 87 -18 78 -3 -3 4 3 8 13 8 13 0 14 3 6
8 -9 6 1 19 32 46 25 20 55 56 66 78 58 113 219 326 305 401 25 22 41 44 37
50 -3 7 -3 9 1 5 16 -14 137 59 163 99 41 61 85 104 103 98 8 -3 30 -1 48 4
44 13 40 6 -10 -17 -45 -20 -101 -72 -78 -72 26 0 188 93 200 115 6 12 25 30
42 40 28 16 31 16 25 2 -9 -24 0 -21 43 13 29 23 118 79 127 80 0 0 -1 -8 -4
-19z m-1361 -53 c-9 -9 -12 -7 -12 12 0 19 3 21 12 12 9 -9 9 -15 0 -24z
m6494 -21 c44 -51 34 -79 -24 -70 -23 4 -37 13 -45 30 -10 22 -8 28 12 44 30
24 33 24 57 -4z m-5419 -28 c-21 -5 -51 -16 -68 -25 -17 -8 -33 -13 -36 -10
-10 10 80 46 112 45 28 -1 28 -2 -8 -10z m253 -34 c-15 -18 -110 -87 -110 -80
0 5 112 95 119 95 2 0 -2 -7 -9 -15z m-1860 -65 c39 -55 116 -114 217 -166 81
-41 74 -43 -29 -6 l-78 27 -15 -23 c-20 -27 -66 -52 -98 -52 -13 0 -36 9 -50
20 -14 11 -30 20 -36 20 -6 0 -11 5 -11 10 0 6 -16 10 -35 10 -36 0 -45 -10
-22 -27 6 -5 66 -32 132 -60 150 -64 235 -103 235 -109 0 -2 -24 6 -52 17 -29
12 -71 28 -93 35 -22 8 -53 21 -70 28 -74 35 -174 69 -215 75 -37 5 -46 10
-48 29 -3 22 3 26 46 22 15 -1 35 11 57 34 18 20 36 36 40 36 3 0 28 -16 56
-35 53 -36 104 -51 138 -40 38 12 7 39 -108 94 -62 29 -111 58 -111 66 0 26
21 26 51 0 35 -29 52 -26 25 4 -17 18 -17 20 1 30 29 17 36 13 73 -39z m1730
5 c-13 -14 -31 -25 -39 -24 -10 0 -7 4 7 10 14 5 20 13 16 20 -4 7 -3 9 4 5 6
-3 13 -2 17 4 3 5 9 10 12 10 4 0 -4 -11 -17 -25z m-602 -204 c-167 -88 -348
-221 -348 -257 0 -8 -18 -31 -41 -51 -27 -25 -39 -43 -36 -55 3 -10 1 -21 -5
-24 -19 -12 -26 -49 -12 -69 21 -29 17 -35 -18 -35 -30 1 -31 2 -15 14 29 22
18 45 -18 36 -5 -1 -27 -7 -48 -11 -56 -14 -86 -47 -123 -136 -24 -59 -32 -56
-14 5 7 27 7 32 -4 23 -7 -6 -16 -8 -19 -4 -4 3 -7 1 -7 -5 0 -7 -15 -11 -40
-10 -21 1 -46 -4 -54 -11 -8 -7 -24 -10 -36 -6 -12 4 -27 1 -35 -5 -8 -6 -19
-9 -24 -5 -6 3 -25 -2 -43 -12 -18 -10 -47 -18 -65 -19 -41 -1 -34 14 34 77
82 77 143 105 359 164 51 14 66 24 95 61 44 57 393 294 524 356 98 46 93 32
-7 -21z m962 29 c0 -5 -7 -7 -15 -4 -8 4 -15 8 -15 10 0 2 7 4 15 4 8 0 15 -4
15 -10z m2684 -7 c4 -9 0 -23 -8 -31 -12 -12 -15 -11 -21 7 -3 11 -11 21 -16
21 -5 0 -9 5 -9 10 0 17 47 11 54 -7z m-345 -100 c76 -76 105 -126 78 -136
-18 -7 -44 18 -100 91 -41 54 -67 100 -67 118 0 12 19 -3 89 -73z m192 -24 c7
-14 7 -25 1 -31 -11 -11 -65 49 -56 63 7 13 41 -7 55 -32z m-77 -6 c33 -35 46
-63 29 -63 -15 0 -31 16 -52 50 -37 61 -28 66 23 13z m2376 -63 c0 -4 -9 -10
-20 -13 -14 -4 -20 0 -20 12 0 10 3 21 7 24 7 7 33 -11 33 -23z m-2531 -65 c0
-5 -6 -1 -14 9 -8 11 -15 24 -15 30 0 5 7 1 15 -10 8 -10 14 -23 14 -29z m56
25 c3 -5 1 -10 -4 -10 -6 0 -11 5 -11 10 0 6 2 10 4 10 3 0 8 -4 11 -10z
m-4326 -347 c-45 -43 -84 -76 -87 -75 -2 2 -9 -2 -13 -10 -5 -8 -9 -9 -9 -2 0
7 17 24 38 39 20 15 58 50 83 76 25 27 51 49 57 49 7 0 -25 -35 -69 -77z m298
-175 c-3 -8 -6 -5 -6 6 -1 11 2 17 5 13 3 -3 4 -12 1 -19z m393 -506 c0 -19
-36 -72 -48 -72 -20 0 -62 -39 -62 -58 0 -7 -6 -12 -12 -9 -7 2 -30 -2 -52 -9
-57 -20 -69 -19 -54 6 7 11 17 20 23 20 5 0 38 12 71 26 50 21 65 33 80 63 11
22 25 37 36 37 10 0 18 -2 18 -4z m5718 -1304 c-3 -7 -14 -18 -26 -24 -12 -6
-19 -14 -14 -19 4 -4 -1 -5 -11 -2 -10 4 -28 7 -40 7 -29 0 -10 18 39 35 49
18 57 18 52 3z m-6117 -61 c-25 -23 -50 -42 -55 -43 -6 0 -24 -6 -39 -12 -34
-14 -37 -15 -37 -3 0 5 13 14 29 20 15 7 50 28 77 46 67 47 78 43 25 -8z
m5979 -35 c0 -13 -12 -22 -22 -16 -10 6 -1 24 13 24 5 0 9 -4 9 -8z m-410 -23
c-13 -24 -42 -22 -46 4 -2 13 5 17 27 17 27 0 29 -2 19 -21z m-5597 -176 c-46
-70 -63 -90 -63 -72 0 7 11 27 25 45 14 18 25 36 25 39 0 4 10 19 23 34 37 46
31 16 -10 -46z m87 -43 c0 -5 -5 -10 -11 -10 -5 0 -7 5 -4 10 3 6 8 10 11 10
2 0 4 -4 4 -10z m-249 -125 c-22 -49 -41 -70 -41 -47 0 9 58 102 63 102 2 0
-8 -25 -22 -55z m34 5 c-3 -5 -11 -10 -16 -10 -6 0 -7 5 -4 10 3 6 11 10 16
10 6 0 7 -4 4 -10z m-4 -293 c-24 -23 -40 -35 -36 -27 11 21 69 79 75 73 2 -2
-15 -23 -39 -46z m6171 -32 c10 -23 7 -32 -30 -83 -110 -154 -330 -497 -363
-566 -16 -34 -54 -88 -85 -121 l-55 -60 3 74 c3 55 8 76 21 86 9 7 17 17 17
23 0 6 21 35 48 65 26 30 67 93 92 141 25 48 76 124 113 169 96 114 129 165
134 201 3 32 57 96 80 96 7 0 19 -11 25 -25z m-117 -888 c-31 -61 -67 -126
-80 -144 -14 -17 -35 -51 -48 -75 -104 -189 -125 -212 -158 -172 -18 22 12
105 60 164 55 68 71 96 71 129 0 24 14 45 70 100 39 39 70 76 70 83 0 7 15 23
33 36 50 35 46 7 -18 -121z m-320 -528 c9 -13 -69 -164 -107 -209 l-30 -35 7
65 c7 75 35 143 67 170 26 22 53 26 63 9z m363 -53 c-14 -11 -30 -41 -32 -61
-3 -26 -18 -54 -32 -59 -13 -5 -14 0 -9 26 7 31 24 68 36 78 3 3 14 20 25 38
18 31 19 32 22 11 2 -13 -2 -28 -10 -33z"/>
<path d="M4335 6960 c-3 -5 -1 -10 4 -10 6 0 11 5 11 10 0 6 -2 10 -4 10 -3 0
-8 -4 -11 -10z"/>
<path d="M4590 5569 c0 -6 -8 -9 -18 -7 -12 3 -22 -3 -29 -18 -11 -24 -1 -34
12 -13 4 5 18 14 31 19 24 9 33 30 14 30 -5 0 -10 -5 -10 -11z"/>
<path d="M4585 5500 l-37 -29 31 2 c17 1 31 8 31 15 0 8 8 10 25 6 27 -7 33 4
13 24 -17 17 -21 16 -63 -18z"/>
<path d="M4608 5457 c-21 -6 -38 -16 -38 -24 0 -15 17 -18 22 -3 2 6 8 6 18 0
13 -9 13 -11 0 -20 -30 -20 4 -9 37 12 l35 21 -11 -22 c-7 -12 -23 -26 -37
-31 -13 -5 -24 -14 -24 -20 0 -14 13 -13 28 2 9 9 12 9 12 0 0 -7 -7 -15 -15
-18 -14 -6 -22 -34 -10 -34 11 0 84 40 89 48 9 14 -38 101 -54 100 -8 0 -32
-5 -52 -11z m77 -77 c-3 -5 -11 -10 -16 -10 -6 0 -7 5 -4 10 3 6 11 10 16 10
6 0 7 -4 4 -10z"/>
<path d="M4385 5390 c-3 -5 -1 -10 4 -10 6 0 11 5 11 10 0 6 -2 10 -4 10 -3 0
-8 -4 -11 -10z"/>
<path d="M963 5997 c-25 -11 -31 -27 -9 -27 14 0 42 28 35 34 -2 2 -14 -1 -26
-7z"/>
<path d="M971 5901 c6 -17 17 -35 24 -41 8 -6 24 -32 36 -58 29 -59 36 -40 10
28 -11 29 -18 57 -15 61 4 7 -45 39 -60 39 -3 0 0 -13 5 -29z"/>
<path d="M760 5905 c-14 -17 -7 -31 20 -38 22 -6 23 -3 14 31 -7 26 -17 28
-34 7z"/>
<path d="M1100 5890 c0 -13 20 -13 40 0 12 8 9 10 -12 10 -16 0 -28 -4 -28
-10z"/>
<path d="M1060 5870 c0 -5 5 -10 10 -10 6 0 10 5 10 10 0 6 -4 10 -10 10 -5 0
-10 -4 -10 -10z"/>
<path d="M1128 5863 c7 -3 16 -2 19 1 4 3 -2 6 -13 5 -11 0 -14 -3 -6 -6z"/>
<path d="M841 5815 c0 -11 4 -28 8 -38 6 -18 8 -18 21 -2 11 14 10 19 -8 38
-21 21 -22 21 -21 2z"/>
<path d="M694 5592 c13 -26 41 -66 63 -87 43 -45 160 -118 168 -105 3 4 -7 11
-21 14 -35 9 -127 98 -176 169 -47 69 -67 75 -34 9z"/>
<path d="M2151 5297 c-11 -14 -5 -27 12 -27 6 0 7 3 4 7 -4 3 -2 12 4 20 7 8
8 13 1 13 -5 0 -15 -6 -21 -13z"/>
<path d="M2080 5230 c-14 -11 -20 -20 -14 -20 7 0 22 9 35 20 31 25 12 26 -21
0z"/>
<path d="M5625 10220 c22 -24 29 -25 80 -1 l40 19 -69 1 c-68 1 -69 1 -51 -19z"/>
<path d="M5846 10224 c-3 -9 -6 -22 -6 -29 0 -7 -18 -44 -40 -81 -39 -68 -48
-98 -31 -108 10 -7 90 23 112 41 8 7 26 13 39 13 12 0 40 5 60 11 50 15 81 6
126 -36 20 -19 41 -35 46 -35 5 0 8 -16 6 -35 -3 -42 8 -53 69 -77 52 -20 63
-17 45 12 -7 11 -12 26 -12 34 0 8 -7 19 -15 24 -14 7 -12 12 7 34 35 38 87
29 136 -26 30 -33 44 -41 72 -41 34 0 35 1 32 38 -3 32 -1 37 17 37 12 0 21 5
21 11 0 5 5 7 11 3 6 -3 9 -21 7 -40 -4 -32 -3 -34 37 -39 22 -4 51 -2 65 4
38 16 83 57 76 69 -3 6 -31 18 -62 27 -59 17 -120 70 -126 109 -2 12 -9 20
-16 18 -9 -2 -9 6 3 27 22 44 19 51 -24 51 l-40 0 6 -36 c5 -29 2 -40 -12 -50
-42 -31 -122 0 -147 56 l-13 30 -221 0 c-193 0 -223 -2 -228 -16z m326 -21 c2
-12 13 -18 33 -18 27 0 30 -3 33 -35 7 -89 1 -97 -36 -50 -38 48 -67 120 -48
120 8 0 16 -8 18 -17z"/>
<path d="M6931 10224 c19 -23 60 -37 73 -24 14 14 -22 39 -58 40 -25 0 -27 -2
-15 -16z"/>
<path d="M1149 10185 c18 -8 36 -15 40 -15 13 1 -45 29 -59 29 -8 0 0 -6 19
-14z"/>
<path d="M7416 10181 c-6 -10 43 -71 57 -71 14 0 -4 44 -26 63 -23 20 -24 20
-31 8z"/>
<path d="M850 10171 c0 -10 22 -31 32 -31 17 0 7 28 -12 33 -11 3 -20 2 -20
-2z"/>
<path d="M40 10159 c0 -5 5 -7 10 -4 6 3 10 8 10 11 0 2 -4 4 -10 4 -5 0 -10
-5 -10 -11z"/>
<path d="M7219 10144 c-19 -23 0 -47 45 -58 52 -14 69 5 36 38 -34 33 -64 40
-81 20z"/>
<path d="M147 10134 c-8 -8 1 -24 14 -24 5 0 9 7 9 15 0 15 -12 20 -23 9z"/>
<path d="M1662 10114 c4 -21 22 -23 26 -1 2 10 -3 17 -13 17 -10 0 -15 -6 -13
-16z"/>
<path d="M1607 10072 c-11 -12 -13 -22 -7 -32 8 -13 13 -12 31 6 12 12 18 27
15 33 -10 16 -20 14 -39 -7z"/>
<path d="M2450 10044 c-16 -5 -58 -76 -61 -104 -6 -60 46 -64 105 -8 13 11 29
17 42 14 11 -3 29 1 40 8 10 7 35 16 56 20 33 6 48 21 48 49 0 6 -9 1 -21 -12
-16 -17 -24 -19 -35 -11 -7 7 -13 15 -12 18 3 26 -5 31 -45 29 -23 -2 -48 -7
-56 -11 -7 -5 -18 -3 -24 3 -6 6 -13 10 -16 10 -4 -1 -13 -3 -21 -5z"/>
<path d="M1232 10018 c-24 -24 -14 -74 23 -118 19 -23 35 -48 35 -56 0 -22 19
-17 43 12 12 14 38 29 57 33 l34 7 -44 42 c-24 23 -52 42 -62 42 -10 0 -25 11
-34 25 -18 27 -34 31 -52 13z"/>
<path d="M1770 10010 c0 -5 5 -10 11 -10 5 0 7 5 4 10 -3 6 -8 10 -11 10 -2 0
-4 -4 -4 -10z"/>
<path d="M7098 9983 c7 -3 16 -2 19 1 4 3 -2 6 -13 5 -11 0 -14 -3 -6 -6z"/>
<path d="M7186 9968 c-21 -29 -4 -63 24 -48 10 5 21 19 25 30 13 41 -23 55
-49 18z"/>
<path d="M1541 9971 c-63 -11 -48 -44 27 -56 36 -6 42 -4 42 10 0 11 5 15 15
11 9 -3 15 0 15 10 0 10 -6 14 -14 11 -8 -3 -20 1 -26 9 -7 8 -15 13 -19 13
-3 -1 -21 -4 -40 -8z"/>
<path d="M4032 9928 l-23 -41 24 -26 c13 -14 27 -35 31 -46 7 -19 8 -19 26 5
24 30 24 37 5 74 -8 15 -15 39 -15 52 0 37 -24 28 -48 -18z"/>
<path d="M80 9946 c0 -9 7 -16 16 -16 17 0 14 22 -4 28 -7 2 -12 -3 -12 -12z"/>
<path d="M1440 9947 c0 -17 44 -59 53 -51 9 10 -10 42 -33 54 -15 8 -20 8 -20
-3z"/>
<path d="M1186 9904 c-4 -11 -15 -15 -35 -12 -37 5 -32 -12 14 -46 33 -25 34
-25 40 -6 4 11 15 20 27 20 11 0 18 5 15 13 -2 6 -12 11 -21 11 -9 -1 -16 4
-16 12 0 20 -17 26 -24 8z"/>
<path d="M1565 9891 c-10 -17 12 -21 25 -6 10 12 10 15 -3 15 -9 0 -18 -4 -22
-9z"/>
<path d="M320 9869 c0 -5 5 -7 10 -4 6 3 10 8 10 11 0 2 -4 4 -10 4 -5 0 -10
-5 -10 -11z"/>
<path d="M486 9871 c-18 -7 -17 -10 12 -41 18 -18 32 -39 32 -45 0 -10 10 -11
36 -5 43 10 41 8 49 43 7 27 -7 38 -21 16 -3 -6 -15 -9 -25 -6 -11 3 -16 1
-13 -5 4 -6 -2 -8 -12 -6 -14 3 -18 11 -16 31 3 28 -6 32 -42 18z"/>
<path d="M1500 9839 c0 -17 4 -20 23 -15 12 3 27 6 32 6 9 0 -42 30 -51 30 -2
0 -4 -10 -4 -21z"/>
<path d="M1427 9823 c-13 -12 16 -33 47 -33 l31 0 -30 20 c-33 22 -38 23 -48
13z"/>
<path d="M1260 9805 c-7 -8 -24 -15 -38 -15 -19 0 -23 -3 -15 -11 7 -7 19 -9
27 -6 9 4 18 5 20 4 5 -4 36 25 36 34 0 14 -16 11 -30 -6z"/>
<path d="M7662 9775 c-16 -62 -15 -95 3 -95 12 0 15 14 15 70 0 39 -1 70 -3
70 -2 0 -8 -20 -15 -45z"/>
<path d="M6755 9794 c-43 -22 -75 -55 -75 -76 0 -17 5 -18 43 -13 64 9 73 13
87 41 12 22 12 27 -6 44 -18 18 -21 19 -49 4z"/>
<path d="M1336 9768 c12 -40 36 -70 47 -59 5 5 16 7 23 4 24 -9 16 25 -8 38
-13 7 -27 18 -31 25 -4 8 -15 14 -23 14 -11 0 -13 -6 -8 -22z"/>
<path d="M1260 9762 c0 -11 51 -35 58 -28 3 3 -1 12 -8 21 -13 16 -50 21 -50
7z"/>
<path d="M6440 9731 c0 -5 7 -12 16 -15 24 -9 28 -7 14 9 -14 17 -30 20 -30 6z"/>
<path d="M1230 9716 c0 -8 5 -18 10 -21 6 -4 18 -24 27 -46 18 -47 27 -48 46
-10 16 32 13 36 -45 74 -33 21 -38 21 -38 3z"/>
<path d="M365 9700 c3 -5 8 -10 11 -10 2 0 4 5 4 10 0 6 -5 10 -11 10 -5 0 -7
-4 -4 -10z"/>
<path d="M674 9653 c1 -24 6 -28 36 -31 19 -2 39 -10 43 -18 4 -8 18 -14 30
-13 21 0 21 1 3 12 -11 7 -35 27 -54 45 -43 39 -59 41 -58 5z"/>
<path d="M6631 9673 c-1 -7 -12 -13 -26 -13 -14 0 -25 -4 -25 -10 0 -5 4 -10
9 -10 5 0 13 -15 17 -32 6 -32 7 -32 15 -10 5 13 6 28 3 34 -4 6 -1 14 6 18 7
4 10 14 7 21 -4 10 -6 10 -6 2z"/>
<path d="M1370 9657 c-16 -13 -15 -57 1 -57 5 0 9 -9 9 -20 0 -11 5 -20 10
-20 7 0 8 13 5 34 -5 26 -3 36 11 44 16 9 16 10 -2 20 -14 7 -24 7 -34 -1z"/>
<path d="M1223 9633 c-14 -5 -18 -33 -5 -33 5 0 14 -12 20 -26 13 -27 32 -24
32 5 0 25 -32 60 -47 54z"/>
<path d="M5680 9610 c0 -13 5 -18 15 -14 12 5 13 10 4 20 -15 19 -19 18 -19
-6z"/>
<path d="M1300 9593 c0 -10 7 -27 15 -37 22 -29 43 -6 27 29 -13 28 -42 34
-42 8z"/>
<path d="M1418 9565 c4 -38 2 -45 -12 -45 -10 0 -14 -4 -11 -10 3 -5 17 -10
30 -10 17 0 22 5 20 18 -2 9 -7 34 -10 55 -8 53 -24 46 -17 -8z"/>
<path d="M1025 9570 c-19 -7 -19 -8 -2 -15 10 -4 23 -3 29 3 14 14 -3 21 -27
12z"/>
<path d="M1198 9556 c-3 -14 -1 -26 4 -26 14 0 22 30 11 41 -7 7 -12 2 -15
-15z"/>
<path d="M1140 9539 c0 -5 5 -7 10 -4 6 3 10 8 10 11 0 2 -4 4 -10 4 -5 0 -10
-5 -10 -11z"/>
<path d="M1140 9495 c0 -9 5 -15 11 -13 6 2 11 8 11 13 0 5 -5 11 -11 13 -6 2
-11 -4 -11 -13z"/>
<path d="M960 9484 c0 -8 5 -12 10 -9 6 3 10 10 10 16 0 5 -4 9 -10 9 -5 0
-10 -7 -10 -16z"/>
<path d="M1330 9490 c0 -5 5 -10 10 -10 6 0 10 5 10 10 0 6 -4 10 -10 10 -5 0
-10 -4 -10 -10z"/>
<path d="M905 9460 c-11 -12 -31 -20 -52 -20 -35 0 -41 -8 -20 -29 10 -11 7
-13 -13 -8 -14 4 -52 9 -83 13 -32 4 -60 11 -63 15 -3 5 -12 9 -20 9 -10 0
-12 -5 -5 -17 5 -10 12 -26 15 -35 5 -15 18 -18 85 -18 44 0 82 4 85 9 6 8 69
-8 82 -22 4 -4 1 -13 -6 -22 -10 -12 -10 -15 3 -15 8 0 18 7 21 16 4 11 14 14
35 9 25 -5 33 -1 62 35 32 40 89 78 89 59 0 -6 5 -7 11 -3 7 4 6 12 -5 23 -14
13 -18 14 -25 2 -5 -7 -14 -11 -20 -7 -5 4 -19 -2 -31 -14 -24 -24 -34 -26
-26 -5 4 11 -1 15 -17 15 -12 0 -35 7 -51 15 -35 18 -29 19 -51 -5z"/>
<path d="M1389 9468 c0 -7 -2 -33 -5 -57 -2 -25 -1 -42 3 -38 3 4 15 0 24 -9
17 -16 20 -15 38 7 13 16 16 25 8 28 -25 8 -47 35 -47 58 0 23 -20 34 -21 11z"/>
<path d="M1088 9379 c-21 -11 -38 -24 -38 -29 0 -17 35 -11 51 8 17 19 32 43
27 41 -2 -1 -20 -10 -40 -20z"/>
<path d="M1195 9350 c3 -5 10 -10 16 -10 5 0 9 5 9 10 0 6 -7 10 -16 10 -8 0
-12 -4 -9 -10z"/>
<path d="M1366 9343 c-10 -10 -7 -41 4 -48 12 -8 50 3 50 15 0 11 -47 40 -54
33z"/>
<path d="M3980 8985 c0 -2 10 -10 23 -16 20 -11 21 -11 8 4 -13 16 -31 23 -31
12z"/>
<path d="M3990 8880 c0 -6 5 -8 11 -4 6 3 16 0 21 -7 8 -12 9 -11 5 1 -4 18
-37 27 -37 10z"/>
<path d="M4140 8869 c0 -9 -11 -28 -25 -43 -14 -15 -25 -34 -25 -42 0 -8 -4
-12 -10 -9 -5 3 -10 1 -10 -4 0 -6 -5 -11 -11 -11 -6 0 -9 7 -5 15 6 17 -7 19
-34 5 -23 -12 -16 -40 8 -33 9 2 36 -9 60 -24 l43 -28 -33 -5 c-27 -5 -29 -7
-12 -11 12 -4 29 -2 39 3 12 7 20 7 25 -1 4 -7 24 -14 44 -16 21 -2 46 -11 57
-21 27 -24 34 -11 13 21 l-18 28 22 -14 c12 -8 22 -18 22 -22 0 -5 12 -7 28
-4 15 2 21 2 15 0 -19 -7 -15 -33 5 -33 11 -1 6 -6 -13 -15 -16 -7 -25 -14
-20 -14 6 -1 3 -6 -5 -11 -9 -6 -10 -10 -3 -10 6 0 14 4 17 9 11 18 66 3 100
-27 20 -17 36 -36 36 -42 0 -26 20 -6 26 26 5 28 3 39 -9 45 -8 5 -18 21 -22
36 -5 20 -9 23 -15 14 -6 -10 -12 -5 -25 19 -10 19 -12 29 -5 25 8 -5 11 -3 8
6 -3 8 -13 16 -23 18 -25 4 -43 23 -37 39 5 17 -62 80 -90 84 -13 2 -21 6 -18
9 7 8 -23 35 -49 44 -21 6 -21 5 -9 -14 7 -12 16 -21 19 -21 4 0 6 -17 6 -38
-2 -31 -5 -38 -19 -34 -12 3 -14 10 -8 30 4 15 3 32 -2 37 -5 6 -15 19 -23 30
-12 16 -14 17 -15 4z m2 -97 c-7 -2 -12 -10 -12 -18 0 -8 -10 -14 -25 -14 -14
0 -25 5 -25 10 0 6 7 10 15 10 8 0 15 5 15 10 0 6 7 10 15 10 8 0 15 6 16 13
0 8 3 7 6 -2 3 -8 1 -17 -5 -19z m148 18 c0 -5 -7 -10 -15 -10 -8 0 -15 5 -15
10 0 6 7 10 15 10 8 0 15 -4 15 -10z m-110 -50 c0 -5 7 -10 15 -10 23 0 18
-16 -5 -17 -11 -1 -25 7 -30 18 -8 15 -7 19 5 19 8 0 15 -4 15 -10z m-30 -26
c0 -2 -7 -4 -15 -4 -8 0 -15 4 -15 10 0 5 7 7 15 4 8 -4 15 -8 15 -10z m37
-20 c-3 -3 -12 -4 -19 -1 -8 3 -5 6 6 6 11 1 17 -2 13 -5z"/>
<path d="M3946 8853 c-3 -3 -3 -10 0 -14 7 -12 34 -11 34 0 0 11 -26 22 -34
14z"/>
<path d="M4025 8830 c3 -5 10 -10 16 -10 5 0 9 5 9 10 0 6 -7 10 -16 10 -8 0
-12 -4 -9 -10z"/>
<path d="M3964 8795 c3 -8 1 -15 -4 -15 -6 0 -10 4 -10 8 0 5 -13 9 -30 10
-16 0 -30 -4 -30 -10 0 -5 7 -8 15 -4 16 6 17 5 19 -37 2 -26 1 -27 -14 -10
-8 10 -14 16 -13 14 2 -2 -6 -12 -17 -21 -17 -15 -18 -19 -5 -24 8 -3 15 -12
15 -21 0 -24 56 -19 74 7 17 24 11 42 -10 34 -8 -3 -14 1 -14 9 0 8 6 15 13
15 6 0 26 12 42 26 28 24 28 26 6 19 -16 -5 -21 -4 -17 4 4 6 0 11 -9 11 -11
0 -15 -5 -11 -15z"/>
<path d="M3840 8755 c-14 -16 -10 -18 14 -9 9 3 16 10 16 15 0 14 -16 11 -30
-6z"/>
<path d="M3981 8744 c0 -11 3 -14 6 -6 3 7 2 16 -1 19 -3 4 -6 -2 -5 -13z"/>
<path d="M4036 8715 c4 -8 8 -15 10 -15 2 0 4 7 4 15 0 8 -4 15 -10 15 -5 0
-7 -7 -4 -15z"/>
<path d="M5085 8689 c-35 -9 -75 -43 -75 -63 0 -35 91 -35 131 0 23 20 37 17
41 -8 2 -17 14 -27 44 -37 56 -20 124 1 138 42 8 21 7 30 -3 37 -26 15 -91 20
-137 10 -37 -9 -49 -8 -58 3 -15 20 -45 25 -81 16z"/>
<path d="M3810 8670 c0 -5 5 -10 11 -10 5 0 7 5 4 10 -3 6 -8 10 -11 10 -2 0
-4 -4 -4 -10z"/>
<path d="M4616 8605 c20 -50 23 -53 34 -35 13 21 12 30 -4 30 -7 0 -21 10 -29
23 -15 20 -15 19 -1 -18z"/>
<path d="M4320 8561 c0 -5 7 -11 15 -15 8 -3 15 -1 15 3 0 5 -7 11 -15 15 -8
3 -15 1 -15 -3z"/>
<path d="M4488 8503 c6 -2 18 -2 25 0 6 3 1 5 -13 5 -14 0 -19 -2 -12 -5z"/>
<path d="M4220 8476 c0 -14 -6 -26 -12 -27 -7 0 -4 -4 7 -9 25 -10 38 1 33 31
-4 32 -28 37 -28 5z"/>
<path d="M4315 8481 c3 -5 -3 -12 -12 -14 -10 -3 -3 -5 15 -6 30 -1 32 1 18
14 -16 17 -30 20 -21 6z"/>
<path d="M3478 8398 c6 -6 18 -8 28 -6 14 3 12 5 -9 10 -19 3 -25 2 -19 -4z"/>
<path d="M3420 8380 c0 -8 -10 -9 -32 -5 -27 6 -31 5 -21 -6 14 -14 46 -14
118 -1 l50 10 -42 1 c-23 0 -48 4 -57 7 -9 4 -16 1 -16 -6z"/>
<path d="M0 8249 c0 -29 2 -30 17 -18 41 32 43 37 20 43 -35 9 -37 8 -37 -25z"/>
<path d="M3295 8133 c-4 -27 -9 -56 -12 -65 -2 -10 1 -18 7 -18 7 0 10 -7 6
-15 -4 -11 3 -9 24 6 22 17 30 32 35 72 8 52 -1 67 -37 67 -12 0 -18 -12 -23
-47z"/>
<path d="M6925 7959 c-10 -15 3 -25 16 -12 7 7 7 13 1 17 -6 3 -14 1 -17 -5z"/>
<path d="M3620 7780 c-9 -6 -10 -10 -3 -10 6 0 15 5 18 10 8 12 4 12 -15 0z"/>
<path d="M3328 7743 c7 -3 16 -2 19 1 4 3 -2 6 -13 5 -11 0 -14 -3 -6 -6z"/>
<path d="M3474 7724 c3 -9 6 -18 6 -20 0 -2 5 -4 11 -4 8 0 8 4 0 14 -10 11
-8 15 6 19 14 4 12 5 -6 6 -17 1 -22 -3 -17 -15z"/>
<path d="M3528 7691 c3 -23 11 -31 35 -37 l32 -8 -34 -3 c-50 -6 -60 -21 -63
-95 -1 -16 2 -31 6 -35 12 -12 36 28 36 58 0 31 25 46 36 21 4 -9 6 -21 5 -26
-1 -5 5 -4 13 4 19 15 23 106 4 94 -8 -5 -9 -2 -5 10 5 13 -2 21 -28 32 -44
18 -42 19 -37 -15z"/>
<path d="M3475 7622 c-14 -9 -19 -82 -6 -82 10 0 26 61 20 79 -2 6 -9 7 -14 3z"/>
<path d="M3427 7586 c-12 -9 -14 -16 -8 -21 6 -3 11 -3 11 2 0 4 4 2 9 -6 6
-9 9 -5 9 13 0 14 -1 26 -2 26 0 0 -9 -7 -19 -14z"/>
<path d="M3402 7452 c-9 -6 -6 -14 11 -31 l24 -22 16 24 c9 14 13 27 10 31 -9
9 -46 7 -61 -2z"/>
<path d="M3862 7420 c-6 -11 -12 -29 -12 -40 0 -11 -7 -20 -15 -20 -17 0 -42
-46 -32 -56 15 -15 73 56 87 106 10 35 -8 42 -28 10z"/>
<path d="M3055 7399 c-4 -6 -5 -12 -2 -15 2 -3 7 2 10 11 7 17 1 20 -8 4z"/>
<path d="M3381 7379 c11 -16 26 -28 33 -26 22 7 11 29 -22 43 l-33 13 22 -30z"/>
<path d="M3000 7360 c12 -17 24 -30 28 -30 4 0 13 -13 20 -30 14 -31 36 -43
25 -14 -5 14 -3 15 16 4 31 -16 41 -2 15 19 -11 9 -23 23 -27 31 -4 11 -6 9
-7 -5 -1 -18 -2 -18 -11 4 -6 15 -15 21 -24 17 -8 -3 -14 -1 -12 5 1 6 -8 15
-21 20 l-23 9 21 -30z"/>
<path d="M2741 7294 c0 -11 3 -14 6 -6 3 7 2 16 -1 19 -3 4 -6 -2 -5 -13z"/>
<path d="M2490 7255 c-6 -19 -9 -44 -5 -55 8 -26 45 -27 45 -1 0 11 3 26 6 35
4 11 0 16 -12 17 -14 0 -11 4 10 13 l28 13 -23 6 c-36 10 -37 10 -49 -28z"/>
<path d="M2748 7224 c2 -19 7 -36 11 -38 4 -3 5 11 3 30 -2 19 -7 36 -11 38
-4 3 -5 -11 -3 -30z"/>
<path d="M2551 7237 c-6 -6 -11 -24 -11 -39 0 -23 4 -28 23 -28 24 0 51 22 59
49 3 10 16 -3 38 -35 l33 -49 -31 29 c-26 24 -34 27 -47 16 -17 -14 -20 -30
-5 -30 6 0 10 7 10 16 0 8 5 12 10 9 6 -4 8 -14 6 -23 -7 -21 11 -51 22 -37 4
6 18 11 32 13 24 2 24 2 -5 -14 -16 -9 -32 -18 -34 -20 -7 -7 52 -65 91 -90
44 -28 83 -32 74 -9 -3 9 -13 44 -22 78 -13 50 -23 68 -57 97 -23 19 -47 34
-54 32 -7 -2 -13 2 -13 8 0 5 -7 10 -15 10 -8 0 -15 5 -15 11 0 6 -6 9 -12 6
-7 -2 -25 -1 -39 4 -16 4 -31 3 -38 -4z"/>
<path d="M3080 7190 c-9 -6 -10 -10 -3 -10 6 0 15 5 18 10 8 12 4 12 -15 0z"/>
<path d="M3001 7154 c0 -11 3 -14 6 -6 3 7 2 16 -1 19 -3 4 -6 -2 -5 -13z"/>
<path d="M3040 7151 c0 -5 5 -13 10 -16 6 -3 10 -2 10 4 0 5 -4 13 -10 16 -5
3 -10 2 -10 -4z"/>
<path d="M2545 7140 c3 -5 10 -10 16 -10 5 0 9 5 9 10 0 6 -7 10 -16 10 -8 0
-12 -4 -9 -10z"/>
<path d="M2960 7030 c-19 -22 -36 -46 -38 -53 -2 -6 1 -5 7 3 7 10 11 11 11 3
0 -24 20 -13 26 14 4 15 13 34 21 41 11 11 18 33 11 32 -2 -1 -19 -19 -38 -40z"/>
<path d="M3010 7031 c-12 -24 -13 -34 -1 -27 9 6 22 46 15 46 -2 0 -8 -9 -14
-19z"/>
<path d="M1966 6954 c-8 -21 -1 -28 19 -20 9 3 15 11 13 18 -7 19 -25 20 -32
2z"/>
<path d="M2753 6953 c9 -2 25 -2 35 0 9 3 1 5 -18 5 -19 0 -27 -2 -17 -5z"/>
<path d="M7642 6940 c-13 -12 -22 -33 -22 -50 0 -27 3 -30 30 -30 29 0 30 1
30 50 0 55 -6 60 -38 30z"/>
<path d="M2160 6860 c0 -29 5 -42 19 -50 32 -17 57 -12 69 15 6 14 16 25 22
25 5 0 10 5 10 12 0 6 -9 3 -20 -7 -11 -10 -20 -13 -20 -8 0 6 -18 20 -40 32
l-40 21 0 -40z"/>
<path d="M1983 6857 c4 -10 7 -23 7 -28 0 -5 5 -9 10 -9 16 0 12 26 -7 41 -15
12 -16 12 -10 -4z"/>
<path d="M1893 6830 c9 -42 50 -123 65 -128 26 -8 5 103 -27 142 -23 28 -44
20 -38 -14z"/>
<path d="M2313 6848 c-27 -35 -22 -45 20 -46 30 -2 48 -9 65 -27 24 -27 42
-25 42 3 0 26 -23 65 -40 68 -8 1 -29 5 -46 9 -20 5 -34 2 -41 -7z"/>
<path d="M3600 6831 c0 -19 17 -38 25 -29 7 7 -7 48 -16 48 -5 0 -9 -9 -9 -19z"/>
<path d="M2215 6780 c-3 -5 -1 -10 4 -10 6 0 11 5 11 10 0 6 -2 10 -4 10 -3 0
-8 -4 -11 -10z"/>
<path d="M2371 6720 c0 -8 4 -24 9 -35 5 -13 9 -14 9 -5 0 8 -4 24 -9 35 -5
13 -9 14 -9 5z"/>
<path d="M2250 6672 c0 -11 22 -32 32 -32 5 0 4 9 -2 20 -11 20 -30 28 -30 12z"/>
<path d="M2171 6649 c-9 -25 -6 -39 8 -39 13 0 22 43 11 54 -6 6 -13 0 -19
-15z"/>
<path d="M2546 6621 c-4 -5 -3 -16 0 -24 3 -10 -3 -21 -15 -29 -15 -9 -21 -23
-21 -49 0 -19 3 -38 6 -41 7 -7 74 119 74 138 0 16 -36 19 -44 5z"/>
<path d="M2535 6461 c-3 -12 -3 -31 1 -43 7 -21 8 -20 15 12 8 38 -5 65 -16
31z"/>
<path d="M6927 5446 c-8 -20 32 -33 44 -15 14 22 10 29 -15 29 -13 0 -26 -7
-29 -14z"/>
<path d="M2666 5335 c-3 -8 -1 -15 4 -15 13 0 22 18 11 24 -5 3 -11 -1 -15 -9z"/>
<path d="M2709 5313 c12 -23 29 -38 37 -31 2 3 -8 15 -22 29 -25 23 -26 23
-15 2z"/>
<path d="M2590 5165 c0 -8 8 -15 18 -15 13 0 14 -2 3 -9 -9 -6 -6 -8 11 -8
l25 0 -22 23 c-26 28 -35 30 -35 9z"/>
<path d="M92 4700 c-23 -16 -46 -40 -53 -52 -7 -13 -17 -27 -23 -31 -7 -6 -4
-6 7 -3 11 3 30 9 43 12 13 3 24 10 24 14 0 9 50 23 90 26 14 1 33 2 43 3 14
1 12 6 -13 31 -39 38 -66 38 -118 0z"/>
<path d="M13 323 c-8 -3 -13 -22 -13 -44 0 -39 7 -47 26 -30 9 9 53 16 85 13
10 -1 19 -15 23 -32 6 -34 40 -53 69 -38 22 11 22 24 -3 58 -33 46 -145 90
-187 73z"/>
<path d="M70 101 c0 -16 41 -61 56 -61 20 0 28 25 14 49 -7 14 -21 21 -40 21
-17 0 -30 -4 -30 -9z"/>
<path d="M275 10 c-4 -6 8 -10 31 -10 40 0 39 12 -1 17 -13 2 -26 -1 -30 -7z"/>
</g>
</svg>
